<svg id="Layer_1" data-name="Layer 1" xmlns="http://www.w3.org/2000/svg" viewBox="0 0 1024 768"><path d="M817.66,165.24H932.12a5.73,5.73,0,0,1,5.73,5.72v81.21" fill="none" stroke="#c6c6c6" stroke-linecap="round" stroke-width="3" stroke-dasharray="12 14"/><path d="M857.82,385H744.68a5.74,5.74,0,0,1-5.73-5.73V295" fill="none" stroke="#c6c6c6" stroke-linecap="round" stroke-width="3" stroke-dasharray="12 14"/><path d="M93.38,387.79a6.32,6.32,0,0,0-6,6.61,6.45,6.45,0,0,0,6.7,6.2,4.38,4.38,0,0,1,4.35,2.88,34,34,0,0,0,3.42,6.89,4.32,4.32,0,0,1-.19,5.22,6.42,6.42,0,1,0,9.42,8.72,4.83,4.83,0,0,1,5.55-1,34.42,34.42,0,0,0,6.92,2.36,4.32,4.32,0,0,1,3.49,3.87,6.41,6.41,0,1,0,12.82-.45,4.45,4.45,0,0,1,2.89-4.48,34.22,34.22,0,0,0,6.91-3.28,4.39,4.39,0,0,1,5.24.23,6.42,6.42,0,1,0,8.67-9.46,4.23,4.23,0,0,1-.94-5,34.61,34.61,0,0,0,2.82-8,3.87,3.87,0,0,1,3.64-3,6.26,6.26,0,0,0,6-6.54l0-.28a6.28,6.28,0,0,0-6.56-6,4.2,4.2,0,0,1-4.05-3,35.13,35.13,0,0,0-3.75-7.75A3.77,3.77,0,0,1,161,368a6,6,0,0,0-.4-8.55l-.46-.42a6.15,6.15,0,0,0-8.68.39,4.14,4.14,0,0,1-4.89.73,34.6,34.6,0,0,0-8.21-2.8,3.78,3.78,0,0,1-3.06-3.48,6,6,0,0,0-6.28-5.72l-.66,0a6.16,6.16,0,0,0-5.88,6.44,3.86,3.86,0,0,1-2.56,3.88,35.17,35.17,0,0,0-8.06,4,3.78,3.78,0,0,1-4.65-.31,6.13,6.13,0,0,0-8.64.4l-.27.29a6.34,6.34,0,0,0,.42,8.95,4.21,4.21,0,0,1,.88,4.91A34,34,0,0,0,97,384.77,3.83,3.83,0,0,1,93.38,387.79Zm37.11-9.24a13,13,0,1,1-12.2,13.78A13,13,0,0,1,130.49,378.55Z" fill="#f8b20e"/><path d="M165.91,271.82a6.42,6.42,0,0,0-6.12,11.29l3.37,1.83a4.54,4.54,0,0,1,2,5.46,56.2,56.2,0,0,0-1.86,7.66,4.4,4.4,0,0,1-4.27,3.62l-3.74.1a6.41,6.41,0,0,0,.34,12.82l3.62-.09a4.51,4.51,0,0,1,4.45,3.72,54.81,54.81,0,0,0,2.17,7.66,4.51,4.51,0,0,1-1.9,5.37L161.12,333A6.42,6.42,0,0,0,167.83,344l2.67-1.63a4.47,4.47,0,0,1,5.69,1,54.64,54.64,0,0,0,5.79,5.69,4.62,4.62,0,0,1,1.13,5.67l-1.34,2.45a6.42,6.42,0,0,0,11.28,6.12l1.19-2.2A4.29,4.29,0,0,1,199.4,359a53.91,53.91,0,0,0,8.33,2.21,4.66,4.66,0,0,1,3.94,4.36l.06,2.16a6.41,6.41,0,1,0,12.82-.34l-.05-1.93a4.31,4.31,0,0,1,3.44-4.37,54.49,54.49,0,0,0,8.45-2.34,4.72,4.72,0,0,1,5.7,1.75L243,362a6.42,6.42,0,1,0,10.95-6.71l-.8-1.3a4.31,4.31,0,0,1,.76-5.51,54.86,54.86,0,0,0,6.41-6.68,4.45,4.45,0,0,1,5.57-1.13l1.26.69A6.42,6.42,0,0,0,273.24,330l-1.27-.69a4.43,4.43,0,0,1-2.09-5.26,56,56,0,0,0,2-8.63,4.59,4.59,0,0,1,4.26-4.05l1.52,0a6.42,6.42,0,1,0-.33-12.83l-1.68,0a4.42,4.42,0,0,1-4.47-3.41,57,57,0,0,0-2.6-8.39,4.58,4.58,0,0,1,1.63-5.65l1.65-1a6.41,6.41,0,0,0-6.69-10.93l-1.86,1.14a4.74,4.74,0,0,1-5.87-1,55.18,55.18,0,0,0-6.13-5.56,4.43,4.43,0,0,1-1.29-5.59l1.19-2.21A6.41,6.41,0,1,0,240,249.84l-1.34,2.45a4.76,4.76,0,0,1-5.6,2.08,52.66,52.66,0,0,0-7.93-1.7,4.35,4.35,0,0,1-3.73-4.19l-.08-3.12a6.42,6.42,0,0,0-12.83.35l.09,3.36a4.69,4.69,0,0,1-3.7,4.58,54.47,54.47,0,0,0-7.6,2.39,4.37,4.37,0,0,1-5.32-1.79l-1.89-3.08a6.42,6.42,0,0,0-10.94,6.71l2,3.19a4.57,4.57,0,0,1-.87,5.71,53.55,53.55,0,0,0-5.38,5.77,4.43,4.43,0,0,1-5.54,1.1Zm60.78,17.8a20.11,20.11,0,1,1-27.27,8.09A20.13,20.13,0,0,1,226.69,289.62Z" fill="#e6e6e6" stroke="#000" stroke-miterlimit="10" stroke-width="3"/><path d="M93.38,387.79a6.32,6.32,0,0,0-6,6.61,6.45,6.45,0,0,0,6.7,6.2,4.38,4.38,0,0,1,4.35,2.88,34,34,0,0,0,3.42,6.89,4.32,4.32,0,0,1-.19,5.22,6.42,6.42,0,1,0,9.42,8.72,4.83,4.83,0,0,1,5.55-1,34.42,34.42,0,0,0,6.92,2.36,4.32,4.32,0,0,1,3.49,3.87,6.41,6.41,0,1,0,12.82-.45,4.45,4.45,0,0,1,2.89-4.48,34.22,34.22,0,0,0,6.91-3.28,4.39,4.39,0,0,1,5.24.23,6.42,6.42,0,1,0,8.67-9.46,4.23,4.23,0,0,1-.94-5,34.61,34.61,0,0,0,2.82-8,3.87,3.87,0,0,1,3.64-3,6.26,6.26,0,0,0,6-6.54l0-.28a6.28,6.28,0,0,0-6.56-6,4.2,4.2,0,0,1-4.05-3,35.13,35.13,0,0,0-3.75-7.75A3.77,3.77,0,0,1,161,368a6,6,0,0,0-.4-8.55l-.46-.42a6.15,6.15,0,0,0-8.68.39,4.14,4.14,0,0,1-4.89.73,34.6,34.6,0,0,0-8.21-2.8,3.78,3.78,0,0,1-3.06-3.48,6,6,0,0,0-6.28-5.72l-.66,0a6.16,6.16,0,0,0-5.88,6.44,3.86,3.86,0,0,1-2.56,3.88,35.17,35.17,0,0,0-8.06,4,3.78,3.78,0,0,1-4.65-.31,6.13,6.13,0,0,0-8.64.4l-.27.29a6.34,6.34,0,0,0,.42,8.95,4.21,4.21,0,0,1,.88,4.91A34,34,0,0,0,97,384.77,3.83,3.83,0,0,1,93.38,387.79Zm37.11-9.24a13,13,0,1,1-12.2,13.78A13,13,0,0,1,130.49,378.55Z" fill="#f8b20e"/><line x1="103.15" y1="123.59" x2="209.88" y2="123.59" fill="none" stroke="#c6c6c6" stroke-linecap="round" stroke-width="3" stroke-dasharray="12 14"/><line x1="298.18" y1="123.59" x2="663.01" y2="123.59" fill="none" stroke="#c6c6c6" stroke-linecap="round" stroke-width="3" stroke-dasharray="12 14"/><line x1="512" y1="455.8" x2="512" y2="123.59" fill="none" stroke="#c6c6c6" stroke-linecap="round" stroke-width="3" stroke-dasharray="12 14"/><path d="M672.81,392a32.11,32.11,0,0,0-62.73-7.37,20.82,20.82,0,0,0,2,41.54h9.61c4.74,0,8-1.51,9.91-4.62a15.26,15.26,0,0,0,1.85-10.62h-12l18.36-26.25,18.37,26.25h-12A15.15,15.15,0,0,0,648,421.52c1.93,3.1,5.17,4.62,9.9,4.62h13.27A17.13,17.13,0,0,0,672.81,392Z" fill="#e6e6e6" stroke="#000" stroke-miterlimit="10" stroke-width="2"/><path d="M177.38,581.34A32.11,32.11,0,0,0,114.65,574a20.82,20.82,0,0,0,2,41.54h11.59c4.58.07,7.73,1.57,9.62,4.61a15.15,15.15,0,0,1,1.85,10.62h-12L146.05,657l18.36-26.25h-12a15.26,15.26,0,0,1,1.85-10.62c1.89-3,5-4.54,9.62-4.61h11.86a17.13,17.13,0,0,0,1.66-34.17Z" fill="#e6e6e6" stroke="#000" stroke-miterlimit="10" stroke-width="2"/><path d="M493,47.05v-25a12.37,12.37,0,1,0-24.73,0v25h-9.54v-25a21.91,21.91,0,1,1,43.82,0v25Z" fill="#ddd"/><path d="M508.83,58.54A28.24,28.24,0,1,1,480.59,30.3,28.23,28.23,0,0,1,508.83,58.54Z" fill="#fff"/><path d="M508.83,58.54A28.24,28.24,0,1,1,480.59,30.3,28.23,28.23,0,0,1,508.83,58.54Z" fill="#f8b20e"/><path d="M488.78,52.94a8.19,8.19,0,1,0-11.36,7.54l-3.29,11.84h12.93l-3.29-11.84A8.19,8.19,0,0,0,488.78,52.94Z" fill="#fff"/><path d="M555.38,717.31V690.47H468.61v26.84a28.74,28.74,0,0,1-25.22,28.52v.23H580.6v-.23A28.75,28.75,0,0,1,555.38,717.31Z" fill="#fff"/><path d="M513.06,690.47H468.61v26.84a28.55,28.55,0,0,1-2.4,11.45h91.58a28.56,28.56,0,0,1-2.41-11.45V690.47Z" fill="#ddd"/><path d="M555.38,717.31V690.47H468.61v26.84a28.74,28.74,0,0,1-25.22,28.52v.23H580.6v-.23A28.75,28.75,0,0,1,555.38,717.31Z" fill="none" stroke="#000" stroke-width="3"/><path d="M698.67,694a14.06,14.06,0,0,1-14.07,14.07H339.41A14.07,14.07,0,0,1,325.33,694V503.54a14.08,14.08,0,0,1,14.08-14.08H684.6a14.07,14.07,0,0,1,14.07,14.08Z" fill="#fff" stroke="#000" stroke-width="3"/><path d="M698.67,658.34a14.07,14.07,0,0,1-14.07,14.07H339.41a14.08,14.08,0,0,1-14.08-14.07V467.88a14.08,14.08,0,0,1,14.08-14.08H684.6a14.07,14.07,0,0,1,14.07,14.08Z" fill="#fff" stroke="#000" stroke-width="3"/><rect x="342.66" y="469.76" width="338.7" height="185.77" fill="#f8b20e"/><path d="M605.29,757.71A8.3,8.3,0,0,1,597,766H427a8.3,8.3,0,0,1-8.3-8.29v-3.35a8.3,8.3,0,0,1,8.3-8.3H597a8.3,8.3,0,0,1,8.29,8.3Z" fill="#fff" stroke="#000" stroke-width="3"/><path d="M254.41,101.9A4.39,4.39,0,0,1,250,97.5V95a7.5,7.5,0,0,0-7.51-7.5H217.38a7.5,7.5,0,0,0-7.5,7.5v55.89a8.8,8.8,0,0,0,8.79,8.79H292.6a8.8,8.8,0,0,0,8.79-8.79v-40.2a8.79,8.79,0,0,0-8.79-8.79Z" fill="#e6e6e6" stroke="#000" stroke-miterlimit="10" stroke-width="3"/><rect x="19.81" y="91.63" width="83.34" height="68.04" rx="8.79" fill="#e6e6e6"/><path d="M45,101.9a4.4,4.4,0,0,1-4.4-4.4V95a7.49,7.49,0,0,0-7.5-7.5H8A7.5,7.5,0,0,0,.51,95v55.89a8.8,8.8,0,0,0,8.79,8.79H83.22A8.79,8.79,0,0,0,92,150.89v-40.2a8.78,8.78,0,0,0-8.79-8.79Z" fill="#ddd"/><path d="M845.8,636.28a11,11,0,1,0,10.44,11.43A11,11,0,0,0,845.8,636.28Z" fill="#ddd"/><path d="M846.54,619.24a27.85,27.85,0,0,0-22,9.19,4.28,4.28,0,0,0,1.24,6.42c2.27,1.44,5.2.77,7.18-1.05a18.23,18.23,0,0,1,24.77.07c2,1.86,4.92,2.65,7.22,1.19a4.38,4.38,0,0,0,1.12-6.61A27.83,27.83,0,0,0,846.54,619.24Z" fill="#ddd"/><path d="M847.22,602.59a43.11,43.11,0,0,0-35.57,16.07,4.5,4.5,0,0,0,1.25,6.61,5.48,5.48,0,0,0,7-1.31,33.53,33.53,0,0,1,50.9.1,5.49,5.49,0,0,0,7.07,1.42,4.5,4.5,0,0,0,1.34-6.56A43.1,43.1,0,0,0,847.22,602.59Z" fill="#ddd"/><path d="M847.88,586.19a58.13,58.13,0,0,0-48.94,23,4.63,4.63,0,0,0,1.28,6.7,5.31,5.31,0,0,0,7-1.39,48.55,48.55,0,0,1,76.51.2A5.24,5.24,0,0,0,890.6,616,4.57,4.57,0,0,0,892,609.5,58.05,58.05,0,0,0,847.88,586.19Z" fill="#ddd"/><path d="M41.83,484a24.5,24.5,0,1,0,0,34.66A24.5,24.5,0,0,0,41.83,484Zm-3.72,30.94a19.25,19.25,0,1,1,0-27.22A19.24,19.24,0,0,1,38.11,514.94Z" fill="#ddd"/><path d="M73.72,540.78,54.55,521.61a2.08,2.08,0,0,0-2.95,0l-.41.41-5.1-4.95a25.62,25.62,0,0,1-2.67,3.17A24.27,24.27,0,0,1,40,523.06l5.13,5-.38.39a2.06,2.06,0,0,0,0,2.94L64,550.55a6.91,6.91,0,1,0,9.77-9.77Z" fill="#ddd"/><path d="M23.25,487.32h0a12.37,12.37,0,0,0-12.36,12.36h0v0a1.19,1.19,0,0,0,2.37,0v0h0a10,10,0,0,1,10-10h0a1.19,1.19,0,0,0,0-2.37Z" fill="#ddd"/><line x1="963.68" y1="47.12" x2="969.82" y2="39.8" fill="#fff" stroke="#050505" stroke-linecap="round" stroke-linejoin="round" stroke-width="3"/><line x1="977.42" y1="70.92" x2="986.83" y2="69.26" fill="#fff" stroke="#050505" stroke-linecap="round" stroke-linejoin="round" stroke-width="3"/><line x1="898.27" y1="70.92" x2="888.87" y2="69.26" fill="#fff" stroke="#050505" stroke-linecap="round" stroke-linejoin="round" stroke-width="3"/><line x1="912.01" y1="47.12" x2="905.88" y2="39.8" fill="#fff" stroke="#050505" stroke-linecap="round" stroke-linejoin="round" stroke-width="3"/><line x1="937.85" y1="37.71" x2="937.85" y2="28.17" fill="#fff" stroke="#050505" stroke-linecap="round" stroke-linejoin="round" stroke-width="3"/><polygon points="946.86 55.27 928.83 55.27 910.79 73.3 937.85 109.17 964.9 73.3 946.86 55.27" fill="#f8b20e"/><path d="M627.45,303a40.8,40.8,0,0,0-36.67-40.59,76.46,76.46,0,0,0-149.39-17.54,49.57,49.57,0,0,0,4.74,98.92l.35,0v0H586.82A40.78,40.78,0,0,0,627.45,303Z" fill="#f8b20e"/><rect x="857.82" y="255.22" width="151.84" height="259.48" fill="#f8b20e"/><rect x="857.82" y="255.22" width="151.84" height="259.48" fill="none" stroke="#020202" stroke-linecap="round" stroke-linejoin="round" stroke-width="3"/><rect x="873.02" y="274.09" width="121.45" height="37.37" fill="#fff" stroke="#020202" stroke-linecap="round" stroke-linejoin="round" stroke-width="3"/><rect x="885.76" y="288.39" width="28.88" height="8.78" fill="#ddd"/><circle cx="932.33" cy="292.78" r="5.52" fill="#f8b20e"/><circle cx="947.52" cy="292.78" r="5.52" fill="#f8b20e"/><circle cx="962.71" cy="292.78" r="5.52" fill="#ddd"/><circle cx="977.9" cy="292.78" r="5.52" fill="#f8b20e"/><rect x="873.02" y="332.33" width="121.45" height="37.37" fill="#fff" stroke="#020202" stroke-linecap="round" stroke-linejoin="round" stroke-width="3"/><rect x="885.76" y="346.63" width="28.88" height="8.78" fill="#ddd"/><circle cx="932.33" cy="351.02" r="5.52" fill="#f8b20e"/><circle cx="947.52" cy="351.02" r="5.52" fill="#f8b20e"/><circle cx="962.71" cy="351.02" r="5.52" fill="#ddd"/><circle cx="977.9" cy="351.02" r="5.52" fill="#f8b20e"/><rect x="873.02" y="390.58" width="121.45" height="37.37" fill="#fff" stroke="#020202" stroke-linecap="round" stroke-linejoin="round" stroke-width="3"/><rect x="885.76" y="404.87" width="28.88" height="8.78" fill="#ddd"/><circle cx="932.33" cy="409.26" r="5.52" fill="#f8b20e"/><circle cx="947.52" cy="409.26" r="5.52" fill="#f8b20e"/><circle cx="962.71" cy="409.26" r="5.52" fill="#ddd"/><circle cx="977.9" cy="409.26" r="5.52" fill="#f8b20e"/><rect x="873.02" y="448.82" width="121.45" height="37.37" fill="#fff" stroke="#020202" stroke-linecap="round" stroke-linejoin="round" stroke-width="3"/><rect x="885.76" y="463.12" width="28.88" height="8.78" fill="#ddd"/><circle cx="932.33" cy="467.51" r="5.52" fill="#f8b20e"/><circle cx="947.52" cy="467.51" r="5.52" fill="#f8b20e"/><circle cx="962.71" cy="467.51" r="5.52" fill="#ddd"/><circle cx="977.9" cy="467.51" r="5.52" fill="#f8b20e"/><rect x="664.45" y="35.5" width="151.84" height="259.48" fill="#f8b20e"/><rect x="664.45" y="35.5" width="151.84" height="259.48" fill="none" stroke="#020202" stroke-linecap="round" stroke-linejoin="round" stroke-width="3"/><rect x="679.64" y="54.37" width="121.45" height="37.37" fill="#fff" stroke="#020202" stroke-linecap="round" stroke-linejoin="round" stroke-width="3"/><rect x="692.38" y="68.67" width="28.88" height="8.78" fill="#ddd"/><circle cx="738.95" cy="73.05" r="5.52" fill="#f8b20e"/><circle cx="754.14" cy="73.05" r="5.52" fill="#f8b20e"/><circle cx="769.34" cy="73.05" r="5.52" fill="#ddd"/><circle cx="784.53" cy="73.05" r="5.52" fill="#f8b20e"/><rect x="679.64" y="112.61" width="121.45" height="37.37" fill="#fff" stroke="#020202" stroke-linecap="round" stroke-linejoin="round" stroke-width="3"/><rect x="692.38" y="126.91" width="28.88" height="8.78" fill="#ddd"/><circle cx="738.95" cy="131.3" r="5.52" fill="#f8b20e"/><circle cx="754.14" cy="131.3" r="5.52" fill="#f8b20e"/><circle cx="769.34" cy="131.3" r="5.52" fill="#ddd"/><circle cx="784.53" cy="131.3" r="5.52" fill="#f8b20e"/><rect x="679.64" y="170.86" width="121.45" height="37.37" fill="#fff" stroke="#020202" stroke-linecap="round" stroke-linejoin="round" stroke-width="3"/><rect x="692.38" y="185.15" width="28.88" height="8.78" fill="#ddd"/><circle cx="738.95" cy="189.54" r="5.52" fill="#f8b20e"/><circle cx="754.14" cy="189.54" r="5.52" fill="#f8b20e"/><circle cx="769.34" cy="189.54" r="5.52" fill="#ddd"/><circle cx="784.53" cy="189.54" r="5.52" fill="#f8b20e"/><rect x="679.64" y="229.1" width="121.45" height="37.37" fill="#fff" stroke="#020202" stroke-linecap="round" stroke-linejoin="round" stroke-width="3"/><rect x="692.38" y="243.4" width="28.88" height="8.78" fill="#ddd"/><circle cx="738.95" cy="247.78" r="5.52" fill="#f8b20e"/><circle cx="754.14" cy="247.78" r="5.52" fill="#f8b20e"/><circle cx="769.34" cy="247.78" r="5.52" fill="#ddd"/><circle cx="784.53" cy="247.78" r="5.52" fill="#f8b20e"/><path d="M1006.78,116.18h16.43a.78.78,0,0,1,.72,1.1l-11.54,26.48a.78.78,0,0,0,.72,1.1H1023a.78.78,0,0,1,.68,1.18l-21.83,37.35a.79.79,0,0,1-1.45-.56l5.76-26.7a.78.78,0,0,0-.77-.95h-9.32a.79.79,0,0,1-.76-1L1006,116.75A.77.77,0,0,1,1006.78,116.18Z" fill="#ddd"/><g id="g36"><g id="g32"><polygon id="polygon28" points="541.16 271.99 552.12 252.76 541.16 233.54 519.26 233.54 508.31 252.76 519.26 271.99 541.16 271.99" fill="#fff"/><polygon id="polygon30" points="541.16 314.64 552.12 295.42 541.16 276.19 519.26 276.19 508.31 295.42 519.26 314.64 541.16 314.64" fill="#fff"/></g><polygon id="polygon34" points="504.76 293.31 515.71 274.09 504.76 254.87 482.85 254.87 471.9 274.09 482.85 293.31 504.76 293.31" fill="#fff"/></g></svg>