<svg id="Layer_1" data-name="Layer 1" xmlns="http://www.w3.org/2000/svg" viewBox="0 0 1024 700"><path d="M393.19,634.32l1.41-12.41a3.88,3.88,0,0,1,3.92-3.42,3.6,3.6,0,0,1,3.52,3.58v12.25H622V622.18a3.48,3.48,0,0,1,3.62-3.47,4.2,4.2,0,0,1,4,3.72l1.35,11.89h57l-4.8-117.55c-4.11-20.51-21-36.66-42.5-40.65l-77.68-11.58c-6.85-1.06-12.22-8.13-12.31-15.5l-1.71-34H474.24l-1.75,35.46a14.68,14.68,0,0,1-12.38,13.76l-76.7,11.88c-21.51,4-38.4,20.14-42.51,40.65l-4.8,117.55Z" fill="#fff" stroke="#020202" stroke-linecap="round" stroke-linejoin="round" stroke-width="3"/><path d="M574.48,326.26l5.33.34c8,2.22,16.62,9.74,14.6,21.92-1.83,11.06-2.72,12-5,25.72-3.19,19.41-19.06,13.09-19.06,13.09" fill="#fff" stroke="#020202" stroke-linecap="round" stroke-linejoin="round" stroke-width="3"/><path d="M450.57,326.26l-5.32.34c-8,2.22-16.63,9.74-14.6,21.92,1.82,11.06,2.71,12,5,25.72,3.19,19.41,19.06,13.09,19.06,13.09" fill="#fff" stroke="#020202" stroke-linecap="round" stroke-linejoin="round" stroke-width="3"/><path d="M512,277.65v0l-59.43.25V391.05a29.71,29.71,0,0,0,8.27,20.55l18.27,19a28.12,28.12,0,0,0,20.21,8.6h13.17v0H525.2a28.09,28.09,0,0,0,20.21-8.61l18.26-19A29.72,29.72,0,0,0,572,391V277.92Z" fill="#fff" stroke="#020202" stroke-linecap="round" stroke-linejoin="round" stroke-width="3"/><path d="M587.59,232.75c-3.7-3.77-9-5.69-15.64-5.69H494c-23.2-.34-42,6.4-52.87,19.07-9.29,10.85-12.6,25.25-9.86,42.81l7.06,43.89c1.27,10.19,9.29,18.46,13.85,18.46h0c1.18,0,5-.43,5.86-1.22a4.45,4.45,0,0,0,1.39-3.28V307.29c-.15-11.42,7.41-23.35,20.24-23.54H502c.83,1,.85,4.51.86,6.49,0,3.73.06,10.69,6.43,10.69a8.39,8.39,0,0,0,3-.6l42.54-17.13c5.19-.94,7.62,4.28,7.62,8v55.17a4.54,4.54,0,0,0,4.59,4.59c4.91,0,18.22-8.94,20.94-20.47l5.58-78.32C593.76,243.38,591.8,237,587.59,232.75Z" fill="#e6e6e6"/><path d="M455.12,463.25l-78.53,8.87c-26.93,3.55-43.32,20.59-43.32,49l1,123.83,356-3.38.48-120.45c0-28.4-16.33-45.68-43.32-49l-78-8.87L512.12,490.5Z" fill="#f8b20e"/><path d="M455.12,463.25l-78.53,8.87c-26.93,3.55-43.32,20.59-43.32,49l1,123.83,356-3.38.48-120.45c0-28.4-16.33-45.68-43.32-49l-78-8.87L512.12,490.5Z" fill="none" stroke="#020202" stroke-linecap="round" stroke-linejoin="round" stroke-width="3"/><path d="M473.05,445.36c-3.16-3.64-4.62-4.61-6.8-.25l-11.4,18.45L490,523c2.43,4.12,4.37,3.88,6.56-.25l15.53-32.28Z" fill="#fff" stroke="#020202" stroke-linecap="round" stroke-linejoin="round" stroke-width="3"/><path d="M551,445.36c3.16-3.64,4.61-4.61,6.8-.25l11.4,18.45L534,523c-2.43,4.12-4.37,3.88-6.55-.25L511.88,490.5Z" fill="#fff" stroke="#020202" stroke-linecap="round" stroke-linejoin="round" stroke-width="3"/><path d="M716.45,597.2H571.16c-43.22,0-59,32.32-58.48,46.56,0,0-8.65-46.79-64.08-46.79L315,597.2l-45.45,64.09H477.76L490,689l47.54-1.42,6.71-26.31H760.05Z" fill="#ccc"/><path d="M767.35,660.54H545.59c-6.19,0-10.44,5.58-11.82,11.61-1.31,5.75-7,10.08-13.82,10.08H504.52c-6.79,0-12.49-4.33-13.8-10.08-1.37-6-5.48-11.61-11.61-11.61H256.65c-3.72,0-6.73,3.34-6.73,7.46s3,7.46,6.73,7.46H475.76c2.88,12.29,14.68,21.54,28.76,21.54H520c14.09,0,25.89-9.25,28.78-21.54H767.35c3.72,0,6.73-3.35,6.73-7.46S771.07,660.54,767.35,660.54Z" fill="#fff" stroke="#020202" stroke-linecap="round" stroke-linejoin="round" stroke-width="3"/><rect x="430.77" y="207.6" width="163.03" height="76.65" fill="#969696"/><rect x="558.83" y="207.6" width="34.97" height="76.65" fill="#666"/><rect x="430.77" y="207.6" width="163.03" height="22.36" fill="#666"/><rect x="430.77" y="207.6" width="163.03" height="76.65" fill="none" stroke="#020202" stroke-linecap="round" stroke-linejoin="round" stroke-width="3"/><path d="M660,197a10.59,10.59,0,0,0-10.59-10.59H375.14a10.59,10.59,0,1,0,0,21.17H649.42A10.59,10.59,0,0,0,660,197Z" fill="#969696"/><path d="M375.14,207.6H649.42A10.59,10.59,0,0,0,660,197H364.55A10.59,10.59,0,0,0,375.14,207.6Z" fill="#666"/><path d="M660,197a10.59,10.59,0,0,0-10.59-10.59H375.14a10.59,10.59,0,1,0,0,21.17H649.42A10.59,10.59,0,0,0,660,197Z" fill="none" stroke="#020202" stroke-linecap="round" stroke-linejoin="round" stroke-width="3"/><path d="M634,186.43h0v73.05a9.19,9.19,0,0,0-1.33,16.23L621,296.63a16.61,16.61,0,0,0,33.21,0l-11.57-21a9.17,9.17,0,0,0-1.2-16V186.43Z" fill="#666"/><path d="M634,186.43v73.05a9.19,9.19,0,0,0-1.33,16.23L621,296.63a16.61,16.61,0,0,0,33.21,0l-11.57-21a9.17,9.17,0,0,0-1.2-16V186.43" fill="none" stroke="#050505" stroke-width="3"/><path d="M263.63,161.35a35.26,35.26,0,1,0-55.26,29,5.31,5.31,0,0,1,2.4,4.28v11.69c0,5.18,4.21,4.75,9.38,4.75H236.6c5.17,0,9.38.43,9.38-4.75V194.64a5.27,5.27,0,0,1,2.41-4.28A35.19,35.19,0,0,0,263.63,161.35Z" fill="#f8b20e"/><line x1="235.69" y1="176.2" x2="235.69" y2="201.94" fill="#fff" stroke="#fff" stroke-linecap="round" stroke-linejoin="round" stroke-width="3"/><line x1="220.59" y1="173.78" x2="220.59" y2="201.94" fill="#fff" stroke="#fff" stroke-linecap="round" stroke-linejoin="round" stroke-width="3"/><path d="M220.14,173.65a8.13,8.13,0,1,1-4.93-14.58c4.54,0,7.91,3.1,12.71,8.16,5.32,5.38,8.12,8.1,12.59,8.1a8.13,8.13,0,1,0-4.95-14.6" fill="none" stroke="#fff" stroke-linecap="round" stroke-miterlimit="10" stroke-width="3"/><path d="M238.1,219a10.21,10.21,0,1,1-20.41,0c0-5.64,4.57-5.57,10.2-5.57S238.1,213.37,238.1,219Z" fill="#f8b20e"/><path d="M210.76,198.52v10.92a6.69,6.69,0,0,0,6.71,6.68h21.81a6.69,6.69,0,0,0,6.71-6.68V198.52Z" fill="#fff" stroke="#000" stroke-linecap="round" stroke-linejoin="round" stroke-width="3"/><line x1="158.38" y1="162.23" x2="175.11" y2="162.23" fill="#e8f2fc" stroke="#000" stroke-linecap="round" stroke-linejoin="round" stroke-width="3"/><line x1="281.63" y1="162.23" x2="298.36" y2="162.23" fill="#e8f2fc" stroke="#000" stroke-linecap="round" stroke-linejoin="round" stroke-width="3"/><line x1="178.88" y1="211.72" x2="190.71" y2="199.89" fill="#e8f2fc" stroke="#000" stroke-linecap="round" stroke-linejoin="round" stroke-width="3"/><line x1="266.03" y1="124.57" x2="277.86" y2="112.75" fill="#e8f2fc" stroke="#000" stroke-linecap="round" stroke-linejoin="round" stroke-width="3"/><line x1="228.37" y1="108.97" x2="228.37" y2="92.24" fill="#e8f2fc" stroke="#000" stroke-linecap="round" stroke-linejoin="round" stroke-width="3"/><line x1="277.86" y1="211.72" x2="266.03" y2="199.89" fill="#e8f2fc" stroke="#000" stroke-linecap="round" stroke-linejoin="round" stroke-width="3"/><line x1="190.71" y1="124.57" x2="178.88" y2="112.74" fill="#e8f2fc" stroke="#000" stroke-linecap="round" stroke-linejoin="round" stroke-width="3"/><path d="M823.42,440.69H940.23l.07.05c.18,0,.34-.05.52-.05a10.29,10.29,0,0,1,10.26,9.68l.07.06V451h0V632.22H821.76v-171l-10.13-.09V451c0-5.63,5.14-10.3,10-10.3Z" fill="#e6e6e6"/><path d="M931.25,451c0-5.58,5-10.21,9.83-10.3l-.26,0c-.18,0-.34.05-.52.05l-.07-.05H823.42l-1.82,0c-4.83,0-10,4.67-10,10.3v10.16l10.13.09,109.49-.09Z" fill="#ccc"/><polygon points="904.55 692.94 895.93 683.13 882.4 683.18 900.67 640.57 922.83 650.32 904.55 692.94" fill="#dedede" stroke="#000" stroke-linecap="round" stroke-linejoin="round" stroke-width="2"/><polygon points="946.12 692.1 954.34 681.94 967.86 681.44 947.87 639.61 926.13 650.25 946.12 692.1" fill="#dedede" stroke="#000" stroke-linecap="round" stroke-linejoin="round" stroke-width="2"/><polygon points="970.61 624.53 954.94 633.87 954.2 652.08 936.2 649.16 923.93 662.64 912.01 648.84 893.94 651.27 893.69 633.04 878.29 623.29 889.82 609.17 884.28 591.79 902.19 588.38 909.12 571.52 925.04 580.42 941.18 571.95 947.66 589 965.47 592.89 959.46 610.11 970.61 624.53" fill="#f8b20e"/><path d="M899.71,615.61a24.05,24.05,0,1,1,24.54,23.55A24.06,24.06,0,0,1,899.71,615.61Z" fill="#fff" stroke="#000" stroke-linecap="round" stroke-linejoin="round" stroke-width="2"/><line x1="838.6" y1="483.16" x2="929.88" y2="483.16" fill="none" stroke="#000" stroke-linecap="round" stroke-width="3"/><line x1="838.6" y1="502.17" x2="920.37" y2="502.17" fill="none" stroke="#000" stroke-linecap="round" stroke-width="3"/><line x1="838.6" y1="521.19" x2="929.88" y2="521.19" fill="none" stroke="#000" stroke-linecap="round" stroke-width="3"/><line x1="838.6" y1="540.2" x2="904.69" y2="540.2" fill="none" stroke="#000" stroke-linecap="round" stroke-width="3"/><line x1="838.6" y1="559.22" x2="922.22" y2="559.22" fill="none" stroke="#000" stroke-linecap="round" stroke-width="3"/><line x1="838.6" y1="578.24" x2="884.24" y2="578.24" fill="none" stroke="#000" stroke-linecap="round" stroke-width="3"/><rect x="380.86" y="88.18" width="22.68" height="47.49" fill="#e6e6e6"/><rect x="416.16" y="100.84" width="22.69" height="34.83" fill="#dedede"/><rect x="451.47" y="81.85" width="22.69" height="53.82" fill="#e6e6e6"/><rect x="486.76" y="62.85" width="22.7" height="72.82" fill="#dedede"/><path d="M476.81,42.84,493.42,2.71,453.29,19.32Z" fill="#f8b20e"/><polygon points="379.13 71.77 377.01 69.65 407.83 38.82 431.08 62.08 462.57 30.58 464.7 32.7 431.08 66.32 407.83 43.06 379.13 71.77" fill="#f8b20e"/><path d="M708,153.3a8.83,8.83,0,0,1-12.47-.15l-34.77-34.77c-2.66-2.67-3-5.41-.62-7.79l4.68-4.69c3-3,5.7-2.74,8.43,0l34.78,34.78a8.81,8.81,0,0,1,.15,12.46Z" fill="#f8b20e"/><path d="M686.77,83.72a47.59,47.59,0,1,1-47.58-47.59A47.57,47.57,0,0,1,686.77,83.72Z" fill="#fff" stroke="#000" stroke-linecap="round" stroke-linejoin="round" stroke-width="3"/><path d="M673.94,83.72A34.75,34.75,0,1,1,639.19,49,34.74,34.74,0,0,1,673.94,83.72Z" fill="#f8b20e"/><path d="M617.87,81.53a2.38,2.38,0,0,1-2.33,2.19,2.13,2.13,0,0,1-2.11-2.32A25.91,25.91,0,0,1,637,58a2.07,2.07,0,0,1,2.19,2.13,2.45,2.45,0,0,1-2.31,2.33A21.48,21.48,0,0,0,617.87,81.53Z" fill="#fff"/><path d="M140.71,652.18a11.48,11.48,0,0,0-4.84-9.59h0a3.43,3.43,0,0,1,.81-6h32.18V605.45a3.46,3.46,0,0,1,6.24-1.68h0a11.63,11.63,0,0,0,9.66,4.82,12.56,12.56,0,0,0,0-25.12,11.6,11.6,0,0,0-9.66,4.82h0a3.47,3.47,0,0,1-6.24-1.69l0-31.06H138a3.48,3.48,0,0,0-3.51,3.46,3.41,3.41,0,0,0,1.42,2.78h0a11.49,11.49,0,0,1,4.84,9.59,12.61,12.61,0,0,1-25.22,0,11.49,11.49,0,0,1,4.84-9.59h0a3.44,3.44,0,0,0,1.42-2.78,3.49,3.49,0,0,0-3.52-3.46H87.39l0,31.06a3.46,3.46,0,0,1-6.23,1.69h0a11.64,11.64,0,0,0-9.67-4.82,12.56,12.56,0,0,0,0,25.12,11.66,11.66,0,0,0,9.67-4.82h0a3.46,3.46,0,0,1,6.23,1.68v31.14h32.15a3.43,3.43,0,0,1,.81,6h0a11.48,11.48,0,0,0-4.84,9.59,12.61,12.61,0,0,0,25.22,0Z" fill="#f8b20e"/><path d="M6.4,555.56l0,31.05a3.46,3.46,0,0,0,6.24,1.69h0a11.62,11.62,0,0,1,9.66-4.81,12.52,12.52,0,0,1,12.5,12.55c0,11.6-14.8,17.31-22.16,7.74h0a3.48,3.48,0,0,0-6.24,1.69v31.13h31a3.6,3.6,0,0,1,3.11,3.56A3.45,3.45,0,0,1,39.1,643h0a11.6,11.6,0,0,0-4.82,9.63,12.56,12.56,0,0,0,25.12,0A11.58,11.58,0,0,0,54.59,643h0a3.45,3.45,0,0,1,1.69-6.22H87.42v-32a3.43,3.43,0,0,1,6-.8v0a11.46,11.46,0,0,0,9.59,4.82,12.56,12.56,0,0,0,0-25.12,11.49,11.49,0,0,0-9.59,4.82h0a3.44,3.44,0,0,1-6-.81V555.54H56.29a3.46,3.46,0,0,1-1.69-6.23h0a11.55,11.55,0,0,0,4.82-9.63,12.56,12.56,0,0,0-25.12,0,11.57,11.57,0,0,0,4.82,9.63h0a3.46,3.46,0,0,1-1.69,6.23H6.4Z" fill="#e6e6e6"/><path d="M292.79,314.61a32.16,32.16,0,0,0,.2,3.57,31.64,31.64,0,1,0,43-33V245.08H312.83v40.09A31.62,31.62,0,0,0,292.79,314.61Z" fill="#f2f2f2"/><path d="M293,318.18a31.64,31.64,0,0,0,62.71,1.24,326.26,326.26,0,0,0-35.23,1.34A74.58,74.58,0,0,1,293,318.18Z" fill="#f8b20e"/><path d="M292.79,314.61a32.16,32.16,0,0,0,.2,3.57,31.64,31.64,0,1,0,43-33V245.08H312.83v40.09A31.62,31.62,0,0,0,292.79,314.61Z" fill="none" stroke="#000" stroke-linecap="round" stroke-linejoin="round" stroke-width="3"/><path d="M672.23,385.65a1.9,1.9,0,0,1,3.41,0l6.1,12.38a3.7,3.7,0,0,0,2.75,2l13.66,2a1.89,1.89,0,0,1,1.05,3.23l-9.88,9.64a3.63,3.63,0,0,0-1.05,3.23l2.33,13.6a1.9,1.9,0,0,1-2.75,2l-12.21-6.42a3.67,3.67,0,0,0-3.41,0L660,433.71a1.9,1.9,0,0,1-2.75-2l2.33-13.6a3.65,3.65,0,0,0-1.05-3.23l-9.88-9.64a1.89,1.89,0,0,1,1.05-3.23l13.66-2a3.72,3.72,0,0,0,2.75-2Z" fill="#e6e6e6"/><ellipse cx="809.02" cy="143.84" rx="13.78" ry="54.96" fill="none" stroke="#000" stroke-width="2"/><circle cx="809.02" cy="143.84" r="5.26" fill="#f8b20e"/><circle cx="799.34" cy="182.97" r="4.1" fill="#b3b3b3"/><ellipse cx="809.02" cy="143.84" rx="54.96" ry="13.78" transform="translate(36.47 423.78) rotate(-30)" fill="none" stroke="#000" stroke-width="2"/><circle cx="847.75" cy="132.65" r="4.1" fill="#b3b3b3"/><ellipse cx="809.02" cy="143.84" rx="13.78" ry="54.96" transform="translate(279.94 772.55) rotate(-60)" fill="none" stroke="#000" stroke-width="2"/><circle cx="779.97" cy="115.89" r="4.1" fill="#b3b3b3"/><path d="M209.33,420.33a107.09,107.09,0,1,1-48.11-143.61A107.09,107.09,0,0,1,209.33,420.33Z" fill="#ccc" stroke="#000" stroke-linecap="round" stroke-linejoin="round" stroke-width="3"/><path d="M91,346c-8,0-19,1.1-19,14v6.33c0,6.67,3.36,8.66,8.91,12.36l5.32,3.55a10,10,0,0,1,4.46,8.33v17.91c0,3-11.19,19.57-13.31,21.69-4.32,4.33-7.73,10.08-6.36,16.05a10.74,10.74,0,0,0,9.5,8.25,8.86,8.86,0,0,0,8-4.42,4.81,4.81,0,0,1,4.06-2.22h12.25c3.3,0,6.25-1.58,8.81-3.65,3.22-2.6,8.6-6.55,8.6-6.55l28.83-21.38a4.76,4.76,0,0,0,2.95-4.4,3.19,3.19,0,0,0-3.19-3.19h-3.5A3.37,3.37,0,0,1,144,405.3l-.23-27.4a15.34,15.34,0,0,0-4.2-10.41,16.51,16.51,0,0,0-10.09-4.55,5.61,5.61,0,0,1-4.91-5.44l0-2a10.16,10.16,0,0,0-2.56-6.64,8.49,8.49,0,0,0-6.32-2.85Z" fill="#f2f2f2" stroke="#000" stroke-linecap="round" stroke-linejoin="round" stroke-width="3"/><path d="M17.87,393.56c1.15-3.37,10.31-12.95,10.31-12.95a30.23,30.23,0,0,0,4.8-22l-.41-2.44A4.64,4.64,0,0,0,28,352.27a2,2,0,0,1-1.95-2v-8.39l5.86-13.8v-11.3a8.46,8.46,0,0,0-4.73-7.64,108.32,108.32,0,0,0-9.56,15.64,106.73,106.73,0,0,0-4.93,83.88Z" fill="#f2f2f2" stroke="#000" stroke-linecap="round" stroke-linejoin="round" stroke-width="3"/><path d="M114.13,265.45c-34.91.69-58.48,14.42-77.77,32.58,1.81,1.46,12.37,10.14,14.67,8.24l18.34-8.5,16.54-16.21s13.89,9.49,16.58,9.49c3,0,11.43-6.64,16.44-10.15C124.61,276.93,114.13,265.45,114.13,265.45Z" fill="#f2f2f2" stroke="#000" stroke-linecap="round" stroke-linejoin="round" stroke-width="3"/><path d="M194.33,302.33c-2.39.69-16.49-3.93-16.49-.66a4,4,0,0,1-4,4h-3.91L167,301.46a10.39,10.39,0,0,0-13.65-3.18l-3.87,2.18a8.66,8.66,0,0,0-4.41,7.54,2.53,2.53,0,0,1-2.53,2.52H134c-3.05,0-18.66,4.3-20.36,6.56l-.57.77a5.83,5.83,0,0,0-.12,6.82,6,6,0,0,0,6.47,2.31h15.27l24.84,6.33h2.14a8.74,8.74,0,0,1,8,5.34l.64,1.55a2.73,2.73,0,0,1-2.52,3.8h-.37l-4-2.19a3.88,3.88,0,0,0-4.94,1,2.66,2.66,0,0,0,1,4l.89.42a3.36,3.36,0,0,1,1.93,3.07l-.06,8.45v25.45A9.09,9.09,0,0,0,174,393l8-2.36a4,4,0,0,0,2.73-4.91,3.85,3.85,0,0,0-4.81-2.68,1.78,1.78,0,0,1-2.32-1.41l-.79-6.78a2.6,2.6,0,0,1,4.15-2.37l12.14,9.15a7.67,7.67,0,0,1,2.81,8l-6.16,24.5a2.24,2.24,0,0,0,2.24,2.24,3.26,3.26,0,0,0,3-2.1l24-23.61A107.35,107.35,0,0,0,194.33,302.33Z" fill="#f2f2f2" stroke="#000" stroke-linecap="round" stroke-linejoin="round" stroke-width="3"/><path d="M288.13,441.29h-18v-32h17.29" fill="none" stroke="#000" stroke-linecap="round" stroke-width="2"/><path d="M298,422.43h16.6M298,431.74h16.6" fill="none" stroke="#000" stroke-linecap="round" stroke-width="2"/><path d="M325.51,416.62V422h0a7.93,7.93,0,0,1,7.22-4.23,6.81,6.81,0,0,1,6.51,4.61h.09a9.44,9.44,0,0,1,2.57-3,7.83,7.83,0,0,1,5.08-1.62c3,0,7.56,2,7.56,10v13.54" fill="none" stroke="#000" stroke-linecap="round" stroke-width="2"/><path d="M381.63,440.43a15.4,15.4,0,0,1-6.6,1.33c-6.94,0-11.46-4.7-11.46-11.73s4.85-12.21,12.36-12.21a14.09,14.09,0,0,1,5.79,1.18" fill="none" stroke="#000" stroke-linecap="round" stroke-width="2"/><path d="M387.82,406c3.77-3.18,10.55-2.29,10.55,3.39,0,3.92-3.67,9.38-7.6,13h8" fill="none" stroke="#000" stroke-linecap="round" stroke-width="2"/><line x1="270.13" y1="425.59" x2="286.32" y2="425.59" fill="none" stroke="#000" stroke-linecap="round" stroke-width="2"/><line x1="325.51" y1="422" x2="325.51" y2="441.29" fill="none" stroke="#000" stroke-linecap="round" stroke-width="2"/><line x1="339.24" y1="422.38" x2="339.24" y2="441.29" fill="none" stroke="#000" stroke-linecap="round" stroke-width="2"/><path d="M999.58,380.72H753.14V241.17A11.86,11.86,0,0,1,765,229.3H987.7a11.87,11.87,0,0,1,11.88,11.87Z" fill="#fff" stroke="#000" stroke-width="3"/><rect x="765.74" y="245.19" width="221.23" height="119.63" fill="#f8b20e"/><path d="M1012.52,387.58a28.76,28.76,0,0,1-19.74,7.87H761.68a30.83,30.83,0,0,1-20.1-7.47l-8-6.9a2.12,2.12,0,0,1,1.39-3.73h282.58a2.28,2.28,0,0,1,1.57,3.93Z" fill="#e6e6e6"/><path d="M832.19,378.5l5.78,4.67a16.74,16.74,0,0,0,10.55,3.74h55.67a16.77,16.77,0,0,0,10.56-3.74l5.77-4.67" fill="#f8b20e"/><line x1="869.79" y1="237.64" x2="882.93" y2="237.64" fill="#fff" stroke="#000" stroke-linecap="round" stroke-width="3"/><path d="M1012.52,387.58a28.76,28.76,0,0,1-19.74,7.87H761.68a30.83,30.83,0,0,1-20.1-7.47l-8-6.9a2.12,2.12,0,0,1,1.39-3.73h282.58a2.28,2.28,0,0,1,1.57,3.93Z" fill="none" stroke="#000" stroke-width="3"/></svg>