<?xml version="1.0" encoding="UTF-8" standalone="no"?>
<!-- Created with Inkscape (http://www.inkscape.org/) -->

<svg
   xmlns:dc="http://purl.org/dc/elements/1.1/"
   xmlns:cc="http://creativecommons.org/ns#"
   xmlns:rdf="http://www.w3.org/1999/02/22-rdf-syntax-ns#"
   xmlns:svg="http://www.w3.org/2000/svg"
   xmlns="http://www.w3.org/2000/svg"
   xmlns:sodipodi="http://sodipodi.sourceforge.net/DTD/sodipodi-0.dtd"
   xmlns:inkscape="http://www.inkscape.org/namespaces/inkscape"
   version="1.1"
   id="svg2"
   xml:space="preserve"
   width="377.95334"
   height="123.11653"
   viewBox="0 0 377.95334 123.11653"
   sodipodi:docname="ARDC logo REV RGB.svg"
   inkscape:version="0.92.4 5da689c313, 2019-01-14"><metadata
     id="metadata8"><rdf:RDF><cc:Work
         rdf:about=""><dc:format>image/svg+xml</dc:format><dc:type
           rdf:resource="http://purl.org/dc/dcmitype/StillImage" /><dc:title></dc:title></cc:Work></rdf:RDF></metadata><defs
     id="defs6"><clipPath
       clipPathUnits="userSpaceOnUse"
       id="clipPath22"><path
         d="M 0,92.337 H 283.465 V 0 H 0 Z"
         id="path20"
         inkscape:connector-curvature="0" /></clipPath></defs><sodipodi:namedview
     pagecolor="#ffffff"
     bordercolor="#666666"
     borderopacity="1"
     objecttolerance="10"
     gridtolerance="10"
     guidetolerance="10"
     inkscape:pageopacity="0"
     inkscape:pageshadow="2"
     inkscape:window-width="2105"
     inkscape:window-height="1275"
     id="namedview4"
     showgrid="false"
     inkscape:zoom="0.95779019"
     inkscape:cx="128.42061"
     inkscape:cy="124.20247"
     inkscape:window-x="0"
     inkscape:window-y="27"
     inkscape:window-maximized="0"
     inkscape:current-layer="g10"
     inkscape:pagecheckerboard="true" /><g
     id="g10"
     inkscape:groupmode="layer"
     inkscape:label="ARDC logo REV RGB"
     transform="matrix(1.3333333,0,0,-1.3333333,0,123.11653)"><g
       id="g12"
       transform="translate(19.4094,92.3373)"><path
         d="m 0,0 -19.409,-48.36 h 13.267 5.046 l 5.844,19.455 H 4.91 4.988 L 10.832,-48.36 H 15.553 28.95 L 9.736,0 Z"
         style="fill:#00b0d5;fill-opacity:1;fill-rule:nonzero;stroke:none"
         id="path14"
         inkscape:connector-curvature="0" /></g><g
       id="g16"><g
         id="g18"
         clip-path="url(#clipPath22)"><g
           id="g24"
           transform="translate(206.4009,68.1572)"><path
             d="M 0,0 C 0,13.354 -10.825,24.18 -24.18,24.18 H -34.956 V 9.916 h 10.776 v 10e-4 c 5.503,0 9.964,-4.461 9.964,-9.963 0,-5.503 -4.461,-9.965 -9.964,-9.965 v -0.001 H -34.956 V -24.179 H -24.18 C -10.825,-24.179 0,-13.354 0,0"
             style="fill:#f8b20e;fill-opacity:1;fill-rule:nonzero;stroke:none"
             id="path26"
             inkscape:connector-curvature="0" /></g><g
           id="g28"
           transform="translate(248.5083,68.1572)"><path
             d="M 0,0 C 0,13.354 10.825,24.18 24.179,24.18 H 34.956 V 9.916 H 24.179 v 10e-4 c -5.501,0 -9.962,-4.461 -9.962,-9.963 0,-5.503 4.461,-9.965 9.962,-9.965 v -0.001 H 34.956 V -24.179 H 24.179 C 10.825,-24.179 0,-13.354 0,0"
             style="fill:#8e489b;fill-opacity:1;fill-rule:nonzero;stroke:none"
             id="path30"
             inkscape:connector-curvature="0" /></g><g
           id="g32"
           transform="translate(123.1118,75.6723)"><path
             d="m 0,0 c 0,5.033 -1.96,9.999 -5.947,13.201 -4.182,3.333 -9.803,3.464 -14.899,3.464 H -36.139 V 4.135 h 16.884 c 3.186,0 5.98,-1.322 5.98,-4.901 0,-3.725 -2.598,-5.196 -6.077,-5.196 h -13.495 l 18.441,-25.732 H -1.792 1.111 3.978 L -9.635,-14.622 C -3.479,-12.529 0,-6.632 0,0"
             style="fill:#e51875;fill-opacity:1;fill-rule:nonzero;stroke:none"
             id="path34"
             inkscape:connector-curvature="0" /></g><g
           id="g36"
           transform="translate(12.2681,0.2128)"><path
             d="M 0,0 -4.556,11.825 H -7.712 L -12.268,0 h 2.854 l 0.746,2.004 h 5.069 L -2.854,0 Z m -4.29,4.22 h -3.687 l 1.843,5.088 z M 8.563,0 V 8.563 H 6.312 V 2.766 C 5.922,2.27 5.23,1.791 4.361,1.791 3.404,1.791 2.784,2.181 2.784,3.368 V 8.563 H 0.532 V 2.482 c 0,-1.667 0.886,-2.695 2.766,-2.695 1.401,0 2.429,0.656 3.014,1.295 L 6.312,0 Z m 5.035,-0.213 c 2.376,0 3.723,1.152 3.723,2.731 0,3.457 -5.088,2.393 -5.088,3.652 0,0.479 0.532,0.832 1.347,0.832 1.046,0 2.022,-0.46 2.536,-0.992 l 0.904,1.595 c -0.852,0.674 -2.003,1.17 -3.44,1.17 -2.269,0 -3.51,-1.258 -3.51,-2.694 0,-3.368 5.071,-2.216 5.071,-3.616 0,-0.532 -0.462,-0.905 -1.437,-0.905 -1.063,0 -2.322,0.586 -2.96,1.188 L 9.769,1.117 c 0.904,-0.834 2.34,-1.33 3.829,-1.33 m 7.96,0 c 0.94,0 1.542,0.249 1.879,0.55 l -0.479,1.72 C 22.834,1.915 22.516,1.791 22.179,1.791 c -0.497,0 -0.781,0.407 -0.781,0.957 v 3.847 h 1.738 v 1.968 h -1.738 v 2.34 H 19.147 V 8.563 H 17.729 V 6.595 h 1.418 V 2.146 c 0,-1.543 0.833,-2.359 2.411,-2.359 M 26.735,0 v 5.655 c 0.372,0.55 1.365,0.975 2.109,0.975 0.266,0 0.461,-0.017 0.621,-0.053 v 2.198 c -1.064,0 -2.11,-0.62 -2.73,-1.365 V 8.563 H 24.483 V 0 Z m 11.258,0 v 5.531 c 0,2.465 -1.792,3.244 -3.759,3.244 -1.348,0 -2.695,-0.407 -3.741,-1.346 l 0.886,-1.578 c 0.709,0.655 1.56,1.01 2.464,1.01 1.135,0 1.88,-0.567 1.88,-1.436 V 4.344 c -0.567,0.674 -1.56,1.046 -2.713,1.046 -1.365,0 -2.96,-0.745 -2.96,-2.766 0,-1.915 1.595,-2.837 2.96,-2.837 1.117,0 2.128,0.408 2.713,1.117 V 0 Z m -4.079,1.312 c -0.886,0 -1.613,0.461 -1.613,1.277 0,0.815 0.727,1.295 1.613,1.295 0.728,0 1.437,-0.267 1.809,-0.764 V 2.057 C 35.351,1.56 34.642,1.312 33.914,1.312 m 8.173,10.513 H 39.836 V 0 h 2.251 z m 3.067,-2.341 c 0.745,0 1.348,0.603 1.348,1.349 0,0.744 -0.603,1.328 -1.348,1.328 -0.726,0 -1.329,-0.584 -1.329,-1.328 0,-0.746 0.603,-1.349 1.329,-1.349 M 46.289,8.563 H 44.038 V 0 h 2.251 z M 55.65,0 v 5.531 c 0,2.465 -1.791,3.244 -3.759,3.244 -1.348,0 -2.695,-0.407 -3.741,-1.346 l 0.887,-1.578 c 0.709,0.655 1.56,1.01 2.464,1.01 1.135,0 1.879,-0.567 1.879,-1.436 V 4.344 c -0.567,0.674 -1.56,1.046 -2.713,1.046 -1.364,0 -2.96,-0.745 -2.96,-2.766 0,-1.915 1.596,-2.837 2.96,-2.837 1.118,0 2.128,0.408 2.713,1.117 V 0 Z m -4.078,1.312 c -0.886,0 -1.613,0.461 -1.613,1.277 0,0.815 0.727,1.295 1.613,1.295 0.726,0 1.436,-0.267 1.808,-0.764 V 2.057 C 53.008,1.56 52.298,1.312 51.572,1.312 M 65.542,0 v 6.046 c 0,1.666 -0.904,2.729 -2.802,2.729 -1.383,0 -2.446,-0.673 -2.995,-1.311 V 8.563 H 57.493 V 0 h 2.252 v 5.779 c 0.39,0.496 1.064,0.993 1.95,0.993 0.957,0 1.577,-0.407 1.577,-1.595 V 0 Z m 17.357,0 -2.676,4.503 c 1.277,0.302 2.606,1.435 2.606,3.51 0,2.199 -1.525,3.812 -3.99,3.812 H 73.308 V 0 h 2.518 V 4.201 H 77.67 L 79.992,0 Z m -4.413,6.418 h -2.66 v 3.191 h 2.66 c 0.992,0 1.755,-0.603 1.755,-1.578 0,-1.01 -0.763,-1.613 -1.755,-1.613 m 9.289,-6.631 c 1.329,0 2.677,0.408 3.528,1.188 l -1.011,1.49 C 89.743,1.933 88.75,1.631 88.023,1.631 c -1.453,0 -2.304,0.87 -2.464,1.914 h 6.364 v 0.533 c 0,2.783 -1.719,4.697 -4.29,4.697 -2.589,0 -4.432,-2.003 -4.432,-4.484 0,-2.748 1.968,-4.504 4.574,-4.504 m 1.986,5.319 h -4.22 c 0.088,0.852 0.691,1.827 2.092,1.827 1.489,0 2.056,-1.011 2.128,-1.827 m 6.594,-5.319 c 2.376,0 3.724,1.152 3.724,2.731 0,3.457 -5.088,2.393 -5.088,3.652 0,0.479 0.531,0.832 1.347,0.832 1.046,0 2.021,-0.46 2.535,-0.992 l 0.904,1.595 c -0.85,0.674 -2.003,1.17 -3.439,1.17 -2.269,0 -3.511,-1.258 -3.511,-2.694 0,-3.368 5.07,-2.216 5.07,-3.616 0,-0.532 -0.46,-0.905 -1.435,-0.905 -1.064,0 -2.322,0.586 -2.961,1.188 L 92.526,1.117 c 0.904,-0.834 2.341,-1.33 3.829,-1.33 m 9.113,0 c 1.329,0 2.677,0.408 3.528,1.188 l -1.011,1.49 c -0.549,-0.532 -1.543,-0.834 -2.269,-0.834 -1.453,0 -2.304,0.87 -2.464,1.914 h 6.364 v 0.533 c 0,2.783 -1.72,4.697 -4.29,4.697 -2.589,0 -4.432,-2.003 -4.432,-4.484 0,-2.748 1.968,-4.504 4.574,-4.504 m 1.986,5.319 h -4.221 c 0.09,0.852 0.692,1.827 2.093,1.827 1.489,0 2.056,-1.011 2.128,-1.827 M 118.374,0 v 5.531 c 0,2.465 -1.791,3.244 -3.758,3.244 -1.348,0 -2.695,-0.407 -3.741,-1.346 l 0.886,-1.578 c 0.71,0.655 1.561,1.01 2.465,1.01 1.134,0 1.879,-0.567 1.879,-1.436 V 4.344 c -0.567,0.674 -1.56,1.046 -2.713,1.046 -1.365,0 -2.96,-0.745 -2.96,-2.766 0,-1.915 1.595,-2.837 2.96,-2.837 1.117,0 2.128,0.408 2.713,1.117 V 0 Z m -4.077,1.312 c -0.887,0 -1.614,0.461 -1.614,1.277 0,0.815 0.727,1.295 1.614,1.295 0.726,0 1.436,-0.267 1.808,-0.764 V 2.057 C 115.733,1.56 115.023,1.312 114.297,1.312 M 122.47,0 v 5.655 c 0.372,0.55 1.364,0.975 2.11,0.975 0.265,0 0.46,-0.017 0.62,-0.053 v 2.198 c -1.064,0 -2.11,-0.62 -2.73,-1.365 v 1.153 h -2.252 V 0 Z m 7.835,-0.213 c 1.756,0 2.82,0.78 3.387,1.561 L 132.22,2.73 c -0.408,-0.584 -1.029,-0.939 -1.808,-0.939 -1.366,0 -2.323,1.011 -2.323,2.5 0,1.488 0.957,2.481 2.323,2.481 0.779,0 1.4,-0.318 1.808,-0.921 l 1.472,1.382 c -0.567,0.78 -1.631,1.542 -3.387,1.542 -2.623,0 -4.538,-1.861 -4.538,-4.484 0,-2.642 1.915,-4.504 4.538,-4.504 M 142.929,0 v 6.081 c 0,1.667 -0.905,2.694 -2.784,2.694 -1.4,0 -2.447,-0.673 -2.996,-1.311 v 4.361 H 134.88 V 0 h 2.269 v 5.779 c 0.372,0.496 1.063,0.993 1.951,0.993 0.957,0 1.577,-0.372 1.577,-1.56 V 0 Z m 12.464,0 c 3.688,0 6.257,2.341 6.257,5.922 0,3.545 -2.569,5.903 -6.275,5.903 h -4.663 V 0 Z m -0.018,2.217 h -2.145 v 7.392 h 2.163 c 2.412,0 3.688,-1.613 3.688,-3.687 0,-2.022 -1.366,-3.705 -3.706,-3.705 M 170.516,0 v 5.531 c 0,2.465 -1.791,3.244 -3.759,3.244 -1.347,0 -2.695,-0.407 -3.74,-1.346 l 0.885,-1.578 c 0.71,0.655 1.56,1.01 2.465,1.01 1.134,0 1.878,-0.567 1.878,-1.436 V 4.344 c -0.566,0.674 -1.558,1.046 -2.712,1.046 -1.365,0 -2.96,-0.745 -2.96,-2.766 0,-1.915 1.595,-2.837 2.96,-2.837 1.117,0 2.128,0.408 2.712,1.117 V 0 Z m -4.079,1.312 c -0.886,0 -1.613,0.461 -1.613,1.277 0,0.815 0.727,1.295 1.613,1.295 0.728,0 1.436,-0.267 1.808,-0.764 V 2.057 c -0.372,-0.497 -1.08,-0.745 -1.808,-0.745 m 8.882,-1.525 c 0.941,0 1.542,0.249 1.88,0.55 l -0.479,1.72 c -0.124,-0.142 -0.444,-0.266 -0.781,-0.266 -0.495,0 -0.779,0.407 -0.779,0.957 v 3.847 h 1.736 v 1.968 h -1.736 v 2.34 h -2.251 V 8.563 H 171.49 V 6.595 h 1.419 V 2.146 c 0,-1.543 0.833,-2.359 2.41,-2.359 M 185.567,0 v 5.531 c 0,2.465 -1.791,3.244 -3.759,3.244 -1.347,0 -2.695,-0.407 -3.741,-1.346 l 0.887,-1.578 c 0.708,0.655 1.561,1.01 2.465,1.01 1.134,0 1.879,-0.567 1.879,-1.436 V 4.344 c -0.568,0.674 -1.562,1.046 -2.713,1.046 -1.365,0 -2.961,-0.745 -2.961,-2.766 0,-1.915 1.596,-2.837 2.961,-2.837 1.117,0 2.127,0.408 2.713,1.117 V 0 Z m -4.078,1.312 c -0.886,0 -1.613,0.461 -1.613,1.277 0,0.815 0.727,1.295 1.613,1.295 0.727,0 1.436,-0.267 1.809,-0.764 V 2.057 C 182.925,1.56 182.216,1.312 181.489,1.312 m 17.588,-1.525 c 2.589,0 4.096,1.437 4.93,2.908 l -2.164,1.045 c -0.496,-0.956 -1.56,-1.719 -2.766,-1.719 -2.162,0 -3.723,1.649 -3.723,3.882 0,2.235 1.561,3.883 3.723,3.883 1.206,0 2.27,-0.762 2.766,-1.719 l 2.164,1.064 c -0.834,1.488 -2.341,2.89 -4.93,2.89 -3.562,0 -6.31,-2.465 -6.31,-6.118 0,-3.633 2.748,-6.116 6.31,-6.116 m 10.07,0 c 2.836,0 4.539,2.074 4.539,4.504 0,2.428 -1.703,4.484 -4.539,4.484 -2.818,0 -4.52,-2.056 -4.52,-4.484 0,-2.43 1.702,-4.504 4.52,-4.504 m 0,2.004 c -1.4,0 -2.18,1.151 -2.18,2.5 0,1.328 0.78,2.481 2.18,2.481 1.418,0 2.199,-1.153 2.199,-2.481 0,-1.349 -0.781,-2.5 -2.199,-2.5 M 227.886,0 v 6.187 c 0,1.756 -0.94,2.588 -2.517,2.588 -1.312,0 -2.446,-0.779 -2.943,-1.542 -0.302,0.957 -1.117,1.542 -2.376,1.542 -1.312,0 -2.429,-0.815 -2.801,-1.311 v 1.099 h -2.251 V 0 h 2.251 v 5.779 c 0.337,0.462 0.993,0.993 1.772,0.993 0.923,0 1.277,-0.567 1.277,-1.365 V 0 h 2.269 v 5.779 c 0.32,0.462 0.976,0.993 1.774,0.993 0.922,0 1.276,-0.567 1.276,-1.365 V 0 Z m 14.839,0 v 6.187 c 0,1.756 -0.94,2.588 -2.517,2.588 -1.312,0 -2.447,-0.779 -2.943,-1.542 -0.301,0.957 -1.118,1.542 -2.375,1.542 -1.313,0 -2.43,-0.815 -2.802,-1.311 v 1.099 h -2.251 V 0 h 2.251 v 5.779 c 0.337,0.462 0.993,0.993 1.772,0.993 0.923,0 1.278,-0.567 1.278,-1.365 V 0 h 2.268 v 5.779 c 0.32,0.462 0.975,0.993 1.773,0.993 0.923,0 1.277,-0.567 1.277,-1.365 V 0 Z m 5.833,-0.213 c 2.837,0 4.539,2.074 4.539,4.504 0,2.428 -1.702,4.484 -4.539,4.484 -2.819,0 -4.521,-2.056 -4.521,-4.484 0,-2.43 1.702,-4.504 4.521,-4.504 m 0,2.004 c -1.401,0 -2.181,1.151 -2.181,2.5 0,1.328 0.78,2.481 2.181,2.481 1.418,0 2.198,-1.153 2.198,-2.481 0,-1.349 -0.78,-2.5 -2.198,-2.5 M 262.457,0 v 6.046 c 0,1.666 -0.904,2.729 -2.802,2.729 -1.383,0 -2.446,-0.673 -2.996,-1.311 v 1.099 h -2.251 V 0 h 2.251 v 5.779 c 0.391,0.496 1.066,0.993 1.951,0.993 0.956,0 1.577,-0.407 1.577,-1.595 V 0 Z m 5.016,-0.213 c 2.377,0 3.724,1.152 3.724,2.731 0,3.457 -5.088,2.393 -5.088,3.652 0,0.479 0.533,0.832 1.347,0.832 1.047,0 2.022,-0.46 2.535,-0.992 l 0.905,1.595 c -0.852,0.674 -2.004,1.17 -3.44,1.17 -2.269,0 -3.51,-1.258 -3.51,-2.694 0,-3.368 5.071,-2.216 5.071,-3.616 0,-0.532 -0.462,-0.905 -1.437,-0.905 -1.063,0 -2.321,0.586 -2.961,1.188 l -0.974,-1.631 c 0.904,-0.834 2.34,-1.33 3.828,-1.33"
             style="fill:#ffffff;fill-opacity:1;fill-rule:nonzero;stroke:none"
             id="path38"
             inkscape:connector-curvature="0" /></g></g></g></g></svg>