<?xml version="1.0" encoding="UTF-8"?>
<svg id="b" data-name="Layer 2" xmlns="http://www.w3.org/2000/svg" viewBox="0 0 130 40.11">
  <g id="c" data-name="Layer 1">
    <g id="d" data-name="Logo 1">
      <g id="e" data-name="layer1">
        <g id="f" data-name="g894">
          <g id="g" data-name="g994">
            <g id="h" data-name="g12">
              <polygon id="i" data-name="polygon4" points="54.68 0 52.78 0 49 9.43 51.59 9.43 52.57 9.43 53.71 5.64 53.74 5.64 53.76 5.64 54.9 9.43 55.82 9.43 58.43 9.43 54.68 0" stroke-width="0"/>
              <path id="j" data-name="path6" d="m89.26,4.72C89.26,2.11,87.15,0,84.55,0h-2.1v2.78h2.1c1.07,0,1.94.87,1.94,1.94,0,1.07-.87,1.94-1.94,1.94h-2.1v2.76h2.1c2.6,0,4.71-2.11,4.71-4.71" stroke-width="0"/>
              <path id="k" data-name="path8" d="m97.48,4.72C97.48,2.11,99.59,0,102.19,0h2.1v2.78h-2.1c-1.07,0-1.94.87-1.94,1.94,0,1.07.87,1.94,1.94,1.94h2.1v2.76h-2.1c-2.6,0-4.71-2.11-4.71-4.71" stroke-width="0"/>
              <path id="l" data-name="path10" d="m73.01,3.25c.02-.99-.4-1.94-1.16-2.58-.82-.65-1.91-.68-2.91-.68h-2.98v2.44h3.29c.62,0,1.16.26,1.16.96s-.51,1.01-1.19,1.01h-2.63l3.6,5.02h3.59l-2.66-3.33c1.18-.44,1.94-1.59,1.88-2.85" stroke-width="0"/>
            </g>
            <g id="m" data-name="g26">
              <path id="n" data-name="path14" d="m53.68,21.33v10.95h-4.68V14.15h4.81l7.34,10.44v-10.44h4.7v18.12h-4.51l-7.66-10.95Z" fill="#9d9d9d" stroke-width="0"/>
              <path id="o" data-name="path16" d="m75.12,18.83c3.89,0,6.71,2.85,6.71,7.31v.9h-9.35c.24,1.22,1.39,2.34,3.34,2.34,1.16,0,2.29-.39,3.21-1.11l1.77,2.61c-1.3,1.17-3.48,1.74-5.49,1.74-4.05,0-7.17-2.64-7.17-6.9-.06-3.74,2.93-6.82,6.67-6.88.11,0,.21,0,.32,0Zm-2.69,5.49h5.41c-.14-1.37-1.35-2.37-2.72-2.26-1.35-.06-2.52.92-2.69,2.25h0Z" fill="#9d9d9d" stroke-width="0"/>
              <path id="p" data-name="path18" d="m90.21,18.83c2.83,0,4.59,1.25,5.38,2.42l-2.72,2.53c-.56-.81-1.49-1.29-2.47-1.25-1.64-.06-3.02,1.22-3.08,2.86,0,.11,0,.22,0,.32-.12,1.65,1.12,3.08,2.77,3.2.1,0,.2,0,.3,0,.99.01,1.91-.46,2.47-1.28l2.72,2.55c-.79,1.14-2.55,2.42-5.38,2.42-4.1,0-7.17-2.77-7.17-6.9s3.07-6.88,7.17-6.88Z" fill="#9d9d9d" stroke-width="0"/>
              <path id="q" data-name="path20" d="m98.36,28.75v-5.95h-2.17v-3.64h2.17v-3.59h4.16v3.59h2.66v3.64h-2.66v4.78c-.08.65.39,1.24,1.04,1.32.04,0,.09,0,.13,0,.38.02.76-.1,1.06-.33l.82,3.15c-.52.49-1.55.87-3.1.87-2.67,0-4.11-1.33-4.11-3.86Z" fill="#9d9d9d" stroke-width="0"/>
              <path id="r" data-name="path22" d="m115.02,30.98c-1.07,1.09-2.55,1.69-4.08,1.63-2.01,0-4.51-1.36-4.51-4.32,0-3.18,2.5-4.13,4.51-4.13,1.74,0,3.29.54,4.08,1.52v-1.66c0-1.14-.98-1.9-2.66-1.9-1.36.01-2.68.5-3.72,1.39l-1.49-2.64c1.68-1.35,3.79-2.07,5.95-2.04,3.15,0,6.11,1.17,6.11,5.25v8.2h-4.19v-1.3Zm0-3.23c-.6-.64-1.46-.98-2.34-.92-1.11,0-2.09.49-2.09,1.52s.98,1.52,2.09,1.52c.88.05,1.74-.3,2.34-.95v-1.17Z" fill="#9d9d9d" stroke-width="0"/>
              <path id="s" data-name="path24" d="m121.71,19.15h4.19v1.66c1.03-1.2,2.52-1.92,4.1-1.98v4.05c-.34-.1-.68-.14-1.03-.14-1.09,0-2.53.46-3.07,1.22v8.32h-4.19v-13.12Z" fill="#9d9d9d" stroke-width="0"/>
            </g>
            <g id="t" data-name="g36">
              <g id="u" data-name="g32">
                <polygon id="v" data-name="polygon28" points="34.16 18.96 39.56 9.48 34.16 0 23.36 0 17.96 9.48 23.36 18.96 34.16 18.96" fill="#f6b80b" stroke-width="0"/>
                <polygon id="w" data-name="polygon30" points="34.16 40 39.56 30.52 34.16 21.04 23.36 21.04 17.96 30.52 23.36 40 34.16 40" fill="#f6b80b" stroke-width="0"/>
              </g>
              <polygon id="x" data-name="polygon34" points="16.21 29.48 21.61 20 16.21 10.52 5.4 10.52 0 20 5.4 29.48 16.21 29.48" fill="#f6b80b" stroke-width="0"/>
            </g>
            <g id="y" data-name="g64">
              <path id="z" data-name="path38" d="m50.98,38.08h-.84v1.92h-1.14v-5.36h2.51c.92-.07,1.72.61,1.8,1.53,0,.07,0,.13,0,.2.05.75-.45,1.42-1.17,1.59l1.21,2.04h-1.31l-1.05-1.92Zm.36-2.46h-1.2v1.48h1.2c.41.03.77-.27.8-.68s-.27-.77-.68-.8c-.04,0-.08,0-.12,0Z" fill="#9d9d9d" stroke-width="0"/>
              <path id="aa" data-name="path40" d="m55.59,36.02c1.16,0,1.95.87,1.95,2.14v.23h-2.88c.08.55.57.94,1.12.9.38,0,.75-.14,1.04-.39l.45.66c-.45.37-1.02.56-1.6.54-1.13.02-2.06-.87-2.08-2-.02-1.13.87-2.06,2-2.08,0,0,.01,0,.02,0h0Zm-.96,1.67h1.91c-.02-.5-.44-.88-.94-.86,0,0-.01,0-.02,0-.5-.01-.92.36-.96.86Z" fill="#9d9d9d" stroke-width="0"/>
              <path id="ab" data-name="path42" d="m58.3,38.78c.38.32.85.51,1.34.53.44,0,.65-.15.65-.39,0-.27-.34-.37-.78-.46-.67-.13-1.53-.29-1.53-1.21,0-.65.57-1.22,1.59-1.22.57,0,1.12.18,1.57.53l-.41.7c-.31-.29-.72-.46-1.15-.45-.37,0-.61.14-.61.36,0,.24.31.33.74.42.67.13,1.56.31,1.56,1.27,0,.71-.6,1.25-1.68,1.25-.63.02-1.25-.2-1.74-.6l.44-.72Z" fill="#9d9d9d" stroke-width="0"/>
              <path id="ac" data-name="path44" d="m63.71,36.02c1.16,0,1.95.87,1.95,2.14v.23h-2.88c.08.55.57.94,1.12.9.38,0,.75-.14,1.04-.39l.45.66c-.45.37-1.02.56-1.6.54-1.13.02-2.06-.87-2.08-2-.02-1.13.87-2.06,2-2.08,0,0,.01,0,.02,0h0Zm-.96,1.67h1.91c-.02-.5-.44-.88-.94-.86,0,0-.01,0-.02,0-.5-.01-.92.36-.96.86h0Z" fill="#9d9d9d" stroke-width="0"/>
              <path id="ad" data-name="path46" d="m68.65,39.6c-.32.34-.77.52-1.23.5-.71.03-1.32-.52-1.35-1.24,0-.02,0-.03,0-.05,0-.68.54-1.24,1.22-1.24.05,0,.09,0,.14,0,.46-.03.91.14,1.23.47v-.54c0-.39-.34-.65-.85-.65-.42,0-.83.16-1.13.46l-.39-.68c.47-.4,1.08-.62,1.7-.61.88,0,1.7.35,1.7,1.47v2.5h-1.02v-.4Zm0-1.01c-.21-.23-.51-.36-.82-.34-.4,0-.73.21-.73.59s.33.57.73.57c.31.02.61-.11.82-.34v-.48Z" fill="#9d9d9d" stroke-width="0"/>
              <path id="ae" data-name="path48" d="m70.6,36.12h1.02v.53c.3-.38.76-.6,1.24-.62v1c-.46-.11-.93.05-1.24.41v2.56h-1.02v-3.88Z" fill="#9d9d9d" stroke-width="0"/>
              <path id="af" data-name="path50" d="m75.23,36.02c.6-.04,1.17.23,1.54.7l-.67.63c-.18-.27-.49-.43-.82-.42-.62.04-1.1.58-1.05,1.2.04.57.49,1.02,1.05,1.05.32,0,.63-.15.82-.42l.67.62c-.36.48-.94.74-1.54.71-1.13.02-2.05-.88-2.07-2-.02-1.13.88-2.05,2-2.07.02,0,.04,0,.07,0h0Z" fill="#9d9d9d" stroke-width="0"/>
              <path id="ag" data-name="path52" d="m79.98,37.64c0-.54-.28-.71-.72-.71-.35,0-.68.18-.88.46v2.61h-1.02v-5.36h1.02v1.99c.35-.39.85-.61,1.37-.6.61-.08,1.18.35,1.26.96.01.09.01.17,0,.26v2.76h-1.02v-2.36Z" fill="#9d9d9d" stroke-width="0"/>
              <path id="ah" data-name="path54" d="m83.68,37.32c-.03-1.5,1.15-2.74,2.65-2.77.05,0,.11,0,.16,0,.95-.04,1.84.47,2.28,1.31l-.98.48c-.26-.48-.76-.78-1.3-.78-.97.07-1.71.91-1.64,1.89.06.88.76,1.57,1.64,1.64.55,0,1.05-.3,1.3-.78l.98.47c-.45.84-1.33,1.35-2.28,1.32-1.5.06-2.76-1.11-2.81-2.61,0-.05,0-.11,0-.16Z" fill="#9d9d9d" stroke-width="0"/>
              <path id="ai" data-name="path56" d="m89.36,34.64h1.02v5.36h-1.02v-5.36Z" fill="#9d9d9d" stroke-width="0"/>
              <path id="aj" data-name="path58" d="m91.06,38.05c0-1.13.91-2.06,2.04-2.06,1.13,0,2.06.91,2.06,2.04,0,1.13-.91,2.06-2.04,2.06,0,0,0,0,0,0-1.08.05-2-.79-2.05-1.88,0-.06,0-.11,0-.17Zm3.05,0c-.07-.55-.58-.93-1.13-.86-.55.07-.93.58-.86,1.13.07.5.49.87.99.87.57-.01,1.02-.48,1-1.05,0-.03,0-.06,0-.09Z" fill="#9d9d9d" stroke-width="0"/>
              <path id="ak" data-name="path60" d="m98.47,39.51c-.35.38-.85.6-1.37.59-.61.08-1.17-.34-1.25-.95-.01-.09-.01-.18,0-.27v-2.76h1.02v2.36c-.05.34.18.66.52.72.07.01.13.01.2,0,.35,0,.67-.17.88-.44v-2.63h1.02v3.88h-1.02v-.49Z" fill="#9d9d9d" stroke-width="0"/>
              <path id="al" data-name="path62" d="m103.09,39.5c-.28.37-.73.59-1.2.6-.98,0-1.72-.74-1.72-2.03s.73-2.04,1.72-2.04c.47,0,.91.22,1.2.6v-1.98h1.03v5.36h-1.03v-.5Zm0-2.13c-.21-.28-.54-.44-.88-.44-.62.09-1.06.67-.97,1.29.07.5.47.9.97.97.35,0,.68-.17.88-.44v-1.37Z" fill="#9d9d9d" stroke-width="0"/>
            </g>
          </g>
        </g>
      </g>
    </g>
  </g>
</svg>