<?xml version="1.0" encoding="utf-8"?>
<!-- Generator: Adobe Illustrator 25.4.1, SVG Export Plug-In . SVG Version: 6.00 Build 0)  -->
<svg version="1.1" id="loaded" xmlns="http://www.w3.org/2000/svg" xmlns:xlink="http://www.w3.org/1999/xlink" x="0px" y="0px"
	 viewBox="0 0 240 240" enable-background="new 0 0 240 240" xml:space="preserve">
	<g id="bee">
		<path id="body" fill="#F5B01A" stroke="#000000" stroke-width="3" stroke-miterlimit="10" d="M104.17,72.7L74.64,52.9l29.53-19.79
			c1.97-1.08,4.18-1.64,6.43-1.64c7.28,0.01,18.32,0.02,18.89,0.05c32.25,1.41,32.25,41.35,0,42.77c-0.57,0.02-11.61,0.04-18.89,0.05
			C108.36,74.34,106.15,73.77,104.17,72.7z"/>
		<g id="stripes">
			<path d="M110.6,74.34c0.07,0,0.14,0,0.21,0V31.47c-0.07,0-0.14,0-0.21,0c-1.78,0-3.52,0.36-5.15,1.04v40.78
				C107.08,73.97,108.83,74.34,110.6,74.34z"/>
			<polygon points="101.43,70.86 101.43,34.95 96.07,38.54 96.07,67.27 		"/>
			<polygon points="92.06,64.57 92.06,41.23 86.7,44.82 86.7,60.98 		"/>
		</g>
		<g id="antennae">
			<path fill="none" stroke="#000000" stroke-width="2" stroke-linecap="round" stroke-miterlimit="10" d="M153.68,49.7
				c6.37,0,11.53-5.16,11.53-11.53"/>
			<path fill="none" stroke="#000000" stroke-width="2" stroke-linecap="round" stroke-miterlimit="10" d="M153.68,56.11
				c6.37,0,11.53,5.16,11.53,11.53"/>
		</g>
		<g id="wings-down">
			<animate id="wings-down-anim" attributeName="opacity" values="0;1;0" dur="20ms" repeatCount="indefinite" />
			<path fill="#FFFFFF" stroke="#000000" stroke-width="2" stroke-miterlimit="10" d="M126.21,53c0,0-14.07-17.08-14.07-31.17
				S118.45,2,126.21,2s14.07,5.75,14.07,19.83S126.21,53,126.21,53z"/>
			<path fill="#FFFFFF" stroke="#000000" stroke-width="2" stroke-miterlimit="10" d="M126.21,53c0,0,14.07,17.08,14.07,31.17
				S133.98,104,126.21,104s-14.07-5.75-14.07-19.83S126.21,53,126.21,53z"/>
		</g>
		<g id="wings-up">
			<animate id="wings-up-anim" attributeName="opacity" values="1;0;1" dur="20ms" repeatCount="indefinite" />
			<path fill="#FFFFFF" stroke="#000000" stroke-width="2" stroke-miterlimit="10" d="M126.21,52.4c0,0-14.07-13.4-14.07-24.44
				s6.3-15.56,14.07-15.56s14.07,4.51,14.07,15.56S126.21,52.4,126.21,52.4z"/>
			<path fill="#FFFFFF" stroke="#000000" stroke-width="2" stroke-miterlimit="10" d="M126.21,52.4c0,0,14.07,13.4,14.07,24.44
				s-6.3,15.56-14.07,15.56s-14.07-4.51-14.07-15.56S126.21,52.4,126.21,52.4z"/>
		</g>
	</g>
	<g id="bee-line">
		<path fill="#969696" d="M120,204.75c-1.7,0-3.43-0.05-5.13-0.16l0.24-3.99c3.25,0.2,6.53,0.2,9.75,0l0.24,3.99
			C123.41,204.7,121.7,204.75,120,204.75z"/>
		<path fill="#969696" d="M135.26,203.37l-0.72-3.94c3.19-0.58,6.38-1.36,9.47-2.32l1.19,3.82
			C141.95,201.94,138.61,202.76,135.26,203.37z"/>
		<path fill="#969696" d="M104.71,203.37c-3.35-0.61-6.69-1.43-9.94-2.44l1.19-3.82c3.09,0.96,6.28,1.75,9.47,2.33L104.71,203.37z"/>
		<path fill="#969696" d="M154.77,197.31l-1.64-3.65c2.95-1.33,5.86-2.85,8.63-4.53l2.07,3.42
			C160.92,194.32,157.87,195.92,154.77,197.31z"/>
		<path fill="#969696" d="M85.19,197.3c-3.1-1.4-6.15-3-9.06-4.76l2.07-3.42c2.77,1.68,5.68,3.21,8.63,4.54L85.19,197.3z"/>
		<path fill="#969696" d="M172.25,186.74l-2.47-3.15c2.54-2,5-4.17,7.3-6.47l2.83,2.83C177.49,182.36,174.92,184.64,172.25,186.74z"
			/>
		<path fill="#969696" d="M67.71,186.71c-2.66-2.09-5.23-4.37-7.64-6.78l2.81-2.84l-1.41,1.41l1.42-1.41
			c2.31,2.31,4.76,4.48,7.3,6.48L67.71,186.71z"/>
		<path opacity="0.75" fill="#969696" d="M186.7,172.3l-3.14-2.47c2-2.55,3.87-5.25,5.55-8.02l3.42,2.07
			C190.77,166.79,188.8,169.62,186.7,172.3z"/>
		<path fill="#969696" d="M53.27,172.26c-2.1-2.68-4.06-5.51-5.82-8.42l3.42-2.07c1.68,2.77,3.54,5.46,5.54,8.01L53.27,172.26z"/>
		<path opacity="0.5" fill="#969696" d="M197.29,154.81l-3.65-1.64c1.33-2.95,2.49-6.02,3.46-9.12l3.82,1.19
			C199.91,148.49,198.69,151.71,197.29,154.81z"/>
		<path fill="#969696" d="M42.69,154.78c-1.39-3.1-2.61-6.32-3.62-9.57l3.82-1.19c0.96,3.1,2.12,6.17,3.45,9.12L42.69,154.78z"/>
		<path opacity="0.25" fill="#969696" d="M203.36,135.3l-3.94-0.72c0.58-3.19,0.98-6.44,1.17-9.68l3.99,0.24
			C204.39,128.54,203.97,131.96,203.36,135.3z"/>
		<path fill="#969696" d="M36.63,135.27c-0.61-3.34-1.02-6.76-1.23-10.16l3.99-0.24c0.19,3.24,0.59,6.5,1.17,9.68L36.63,135.27z"/>
		<path fill="#969696" d="M39.4,115.12l-3.99-0.24c0.21-3.4,0.62-6.82,1.23-10.16l3.94,0.72C39.98,108.62,39.59,111.88,39.4,115.12z"
			/>
		<path fill="#969696" d="M42.89,95.97l-3.82-1.19c1.01-3.25,2.23-6.47,3.63-9.57l3.65,1.64C45.02,89.8,43.85,92.87,42.89,95.97z"/>
		<path fill="#969696" d="M50.88,78.21l-3.42-2.07c1.76-2.91,3.72-5.74,5.83-8.42l3.15,2.47C54.42,72.75,52.56,75.44,50.88,78.21z"/>
		<polygon fill="#969696" points="178.46,61.59 178.46,61.6 178.54,61.52 	"/>
		<path fill="#969696" d="M62.91,62.89l-2.83-2.83c2.41-2.41,4.99-4.7,7.65-6.79l2.47,3.15C67.66,58.42,65.21,60.59,62.91,62.89z"/>
	</g>
</svg>
