<svg id="computer-frame" xmlns="http://www.w3.org/2000/svg" viewBox="0 0 1200 1000"><polygon points="752.13 980.37 447.88 980.37 465.28 899.25 737.21 899.25 752.13 980.37" fill="#969696"/><polygon points="447.88 980.37 752.13 980.37 805.65 992.99 394.36 993.29 447.88 980.37" fill="#ccc"/><polygon points="802.85 1000 397.15 1000 394.46 993.29 805.65 992.99 802.85 1000" fill="#969696"/><path d="M0,800v72.72c0,14.76,13.43,26.85,29.85,26.85H1170.17c16.4,0,29.83-12.09,29.83-26.85V800Z" transform="translate(0 -0.75)" fill="#ccc"/><path d="M1200,32.62c0-17.53-13.43-31.87-29.83-31.87H29.85C13.43.75,0,15.09,0,32.62V850H1200Z" transform="translate(0 -0.75)" fill="#969696"/></svg>