<svg xmlns="http://www.w3.org/2000/svg" viewBox="0 0 278.35 85.87"><g id="Layer_2" data-name="Layer 2"><g id="_1._Good_morning" data-name="1. Good morning"><g id="layer1"><g id="g894"><g id="g994"><g id="g12"><polygon id="polygon4" points="117.08 0 113.02 0 104.91 20.2 110.45 20.2 112.56 20.2 115 12.07 115.07 12.07 115.1 12.07 117.54 20.2 119.51 20.2 125.11 20.2 117.08 0" fill="#fff"/><path id="path6" d="M191.12,10.1A10.1,10.1,0,0,0,181,0h-4.51V6H181a4.17,4.17,0,0,1,0,8.33h-4.51V20.2H181a10.09,10.09,0,0,0,10.09-10.09" fill="#fff"/><path id="path8" d="M208.71,10.1A10.1,10.1,0,0,1,218.8,0h4.51V6H218.8a4.17,4.17,0,0,0,0,8.33h4.51V20.2H218.8a10.09,10.09,0,0,1-10.09-10.09" fill="#fff"/><path id="path10" d="M156.33,7a7,7,0,0,0-2.48-5.51C152.1.05,149.75,0,147.63,0h-6.39V5.23h7c1.33,0,2.49.56,2.49,2.05s-1.08,2.17-2.53,2.17h-5.64l7.71,10.75H158l-5.68-7.13a6.17,6.17,0,0,0,4-6.1" fill="#fff"/></g><g id="g26"><path id="path14" d="M114.94,45.67V69.11h-10V30.3h10.3l15.71,22.35V30.3H141V69.11h-9.66Z" fill="#959595"/><path id="path16" d="M160.85,40.31c8.32,0,14.37,6.11,14.37,15.65v1.93h-20c.53,2.61,3,5,7.16,5a11.07,11.07,0,0,0,6.87-2.39L173,66.09c-2.79,2.5-7.45,3.72-11.76,3.72-8.67,0-15.36-5.64-15.36-14.78a14.5,14.5,0,0,1,14.28-14.72C160.4,40.3,160.63,40.31,160.85,40.31Zm-5.76,11.76h11.58a5.4,5.4,0,0,0-5.82-4.83,5.56,5.56,0,0,0-5.76,4.83Z" fill="#959595"/><path id="path18" d="M193.15,40.31c6.06,0,9.83,2.68,11.52,5.18l-5.82,5.41a6.13,6.13,0,0,0-5.29-2.67A6.35,6.35,0,0,0,187,54.34a5.48,5.48,0,0,0,0,.7,6.41,6.41,0,0,0,5.92,6.85c.22,0,.44,0,.66,0a6.31,6.31,0,0,0,5.29-2.73l5.82,5.47c-1.69,2.44-5.47,5.18-11.52,5.18-8.79,0-15.36-5.94-15.36-14.78S184.36,40.31,193.15,40.31Z" fill="#959595"/><path id="path20" d="M210.61,61.55V48.8H206V41h4.66V33.33h8.91V41h5.7V48.8h-5.7V59.05a2.55,2.55,0,0,0,2.22,2.83l.28,0a3.5,3.5,0,0,0,2.27-.7L226,68c-1.1,1-3.31,1.86-6.63,1.86C213.69,69.82,210.61,67,210.61,61.55Z" fill="#959595"/><path id="path22" d="M246.28,66.32a11.63,11.63,0,0,1-8.73,3.5c-4.3,0-9.66-2.91-9.66-9.26,0-6.81,5.36-8.84,9.66-8.84,3.73,0,7,1.16,8.73,3.26V51.43c0-2.45-2.09-4.08-5.7-4.08a12.53,12.53,0,0,0-8,3l-3.2-5.64a19.84,19.84,0,0,1,12.74-4.37c6.75,0,13.09,2.51,13.09,11.23V69.11h-9Zm0-6.92a6.4,6.4,0,0,0-5-2c-2.39,0-4.48,1-4.48,3.26s2.09,3.26,4.48,3.26a6.26,6.26,0,0,0,5-2Z" fill="#959595"/><path id="path24" d="M260.6,41h9v3.55a12.27,12.27,0,0,1,8.79-4.25V49a7.22,7.22,0,0,0-2.21-.29c-2.33,0-5.41,1-6.58,2.61V69.11h-9Z" fill="#959595"/></g><g id="g36"><g id="g32"><polygon id="polygon28" points="73.14 40.6 84.71 20.3 73.14 0 50.01 0 38.45 20.3 50.01 40.6 73.14 40.6" fill="#f5b01a"/><polygon id="polygon30" points="73.14 85.64 84.71 65.34 73.14 45.04 50.01 45.04 38.45 65.34 50.01 85.64 73.14 85.64" fill="#f5b01a"/></g><polygon id="polygon34" points="34.7 63.12 46.26 42.82 34.7 22.52 11.56 22.52 0 42.82 11.56 63.12 34.7 63.12" fill="#f5b01a"/></g><g id="g64"><path id="path38" d="M109.15,81.53h-1.79v4.11h-2.45V74.16h5.37a3.57,3.57,0,0,1,3.85,3.28,3,3,0,0,1,0,.42,3.29,3.29,0,0,1-2.51,3.41l2.58,4.37H111.4Zm.77-5.27h-2.56v3.17h2.56a1.59,1.59,0,1,0,.26-3.17A1.13,1.13,0,0,0,109.92,76.26Z" fill="#959595"/><path id="path40" d="M119,77.12c2.48,0,4.16,1.86,4.16,4.58v.48H117a2.24,2.24,0,0,0,2.39,1.93,3.36,3.36,0,0,0,2.22-.83l1,1.41a5.17,5.17,0,0,1-3.43,1.16,4.37,4.37,0,0,1-.18-8.73Zm-2,3.58h4.09a1.92,1.92,0,0,0-2-1.84h0A2,2,0,0,0,117,80.7Z" fill="#959595"/><path id="path42" d="M124.82,83a4.71,4.71,0,0,0,2.87,1.13c1,0,1.4-.32,1.4-.84s-.72-.79-1.66-1c-1.43-.28-3.28-.62-3.28-2.6,0-1.39,1.23-2.61,3.41-2.61a5.31,5.31,0,0,1,3.36,1.13l-.88,1.5a3.45,3.45,0,0,0-2.46-1c-.79,0-1.31.29-1.31.77s.66.71,1.59.9c1.42.27,3.34.65,3.34,2.72,0,1.51-1.29,2.66-3.6,2.66a5.56,5.56,0,0,1-3.72-1.29Z" fill="#959595"/><path id="path44" d="M136.41,77.12c2.48,0,4.17,1.86,4.17,4.58v.48H134.4a2.23,2.23,0,0,0,2.39,1.93,3.34,3.34,0,0,0,2.22-.83l1,1.41a5.15,5.15,0,0,1-3.43,1.16,4.37,4.37,0,0,1-.18-8.73Zm-2,3.58h4.1a1.93,1.93,0,0,0-2-1.84h0a2,2,0,0,0-2,1.84Z" fill="#959595"/><path id="path46" d="M147,84.79a3.43,3.43,0,0,1-2.63,1.07,2.77,2.77,0,0,1-2.89-2.65V83.1a2.63,2.63,0,0,1,2.6-2.66h.29a3.36,3.36,0,0,1,2.63,1V80.32c0-.85-.72-1.4-1.82-1.4a3.49,3.49,0,0,0-2.43,1l-.83-1.46a5.45,5.45,0,0,1,3.64-1.31c1.89,0,3.63.76,3.63,3.15v5.36H147Zm0-2.17a2.16,2.16,0,0,0-1.75-.72c-.86,0-1.57.44-1.57,1.25s.71,1.23,1.57,1.23a2.2,2.2,0,0,0,1.75-.73Z" fill="#959595"/><path id="path48" d="M151.16,77.33h2.19v1.14A3.57,3.57,0,0,1,156,77.14v2.14a2.67,2.67,0,0,0-2.65.88v5.48h-2.19Z" fill="#959595"/><path id="path50" d="M161.07,77.12a3.91,3.91,0,0,1,3.29,1.5L162.93,80a2,2,0,0,0-1.75-.89,2.43,2.43,0,0,0,0,4.84,2.12,2.12,0,0,0,1.74-.9l1.43,1.32a3.82,3.82,0,0,1-3.29,1.52,4.37,4.37,0,1,1-.14-8.73h.15Z" fill="#959595"/><path id="path52" d="M171.25,80.58c0-1.15-.61-1.51-1.55-1.51a2.42,2.42,0,0,0-1.89,1v5.59h-2.19V74.16h2.19v4.25a3.87,3.87,0,0,1,2.92-1.29,2.41,2.41,0,0,1,2.7,2.06,2.61,2.61,0,0,1,0,.56v5.9h-2.19Z" fill="#959595"/><path id="path54" d="M179.17,79.91A5.81,5.81,0,0,1,184.85,74h.34a5.31,5.31,0,0,1,4.9,2.81l-2.11,1a3.15,3.15,0,0,0-2.79-1.67,3.78,3.78,0,0,0,0,7.54A3.09,3.09,0,0,0,188,82l2.11,1a5.34,5.34,0,0,1-4.9,2.82,5.81,5.81,0,0,1-6-5.59Z" fill="#959595"/><path id="path56" d="M191.33,74.16h2.18V85.64h-2.18Z" fill="#959595"/><path id="path58" d="M195,81.48a4.4,4.4,0,1,1,4.41,4.37h0a4.21,4.21,0,0,1-4.39-4A2,2,0,0,1,195,81.48Zm6.52,0a2.14,2.14,0,1,0-2.13,2.43,2.2,2.2,0,0,0,2.15-2.24C201.51,81.6,201.51,81.54,201.5,81.48Z" fill="#959595"/><path id="path60" d="M210.84,84.59a3.9,3.9,0,0,1-2.93,1.26,2.38,2.38,0,0,1-2.68-2,2.81,2.81,0,0,1,0-.58V77.33h2.19v5a1.34,1.34,0,0,0,1.11,1.54,1.48,1.48,0,0,0,.42,0,2.52,2.52,0,0,0,1.9-1V77.33H213v8.31h-2.18Z" fill="#959595"/><path id="path62" d="M220.74,84.58a3.23,3.23,0,0,1-2.57,1.27c-2.1,0-3.68-1.58-3.68-4.35s1.57-4.38,3.68-4.38a3.21,3.21,0,0,1,2.57,1.28V74.16h2.2V85.64h-2.2Zm0-4.56a2.41,2.41,0,0,0-1.9-1,2.45,2.45,0,0,0,0,4.84,2.37,2.37,0,0,0,1.9-1Z" fill="#959595"/></g></g></g></g></g></g></svg>