<?xml version="1.0" encoding="UTF-8"?>
<svg id="b" data-name="Layer 2" xmlns="http://www.w3.org/2000/svg" viewBox="0 0 290.2 209.59">
  <g id="c" data-name="Layer 1">
    <g>
      <g>
        <g>
          <path d="m35.3,122.39l-23.9-36.3v36.3H3.6v-51.6h7.2l23.8,36.2v-36.2h7.8v51.6h-7.1Z" stroke-width="0"/>
          <path d="m71.1,122.79c-5.4,0-10-2-13.6-5.5-5.1-5.1-5-10.8-5-20.7s-.1-15.7,5-20.7c3.6-3.6,8.2-5.5,13.6-5.5,9.5,0,16.6,5.6,18.4,15.9h-8c-1.2-5.2-4.7-8.8-10.4-8.8-3,0-5.8,1.2-7.6,3.1-2.5,2.8-3.1,5.7-3.1,16.1s.6,13.3,3.1,16.1c1.8,2,4.6,3.1,7.6,3.1,5.7,0,9.3-3.6,10.5-8.8h7.9c-1.7,10.2-9,15.7-18.4,15.7Z" stroke-width="0"/>
          <path d="m127,122.39l-10.9-21.7h-9.8v21.7h-7.8v-51.6h20c9.8,0,16,6.3,16,15.1,0,7.4-4.5,12.1-10.3,13.7l11.9,22.8h-9.1Zm-9-44.6h-11.6v16.2h11.6c5.2,0,8.8-3,8.8-8-.1-5.1-3.6-8.2-8.8-8.2Z" stroke-width="0"/>
          <path d="m144.6,122.39v-51.6h7.8v51.6h-7.8Z" stroke-width="0"/>
          <path d="m178.1,122.79c-7.8,0-13.3-1.8-18.3-6.8l5.2-5.1c3.8,3.8,7.9,4.9,13.2,4.9,6.7,0,10.7-2.9,10.7-7.9,0-2.2-.7-4.1-2-5.4-1.3-1.2-2.6-1.7-5.7-2.2l-6.1-.9c-4.2-.6-7.5-2-9.8-4.1-2.5-2.4-3.8-5.7-3.8-9.9,0-9,6.5-15.1,17.2-15.1,6.8,0,11.6,1.7,16,5.9l-5,4.9c-3.2-3-6.9-4-11.2-4-6.1,0-9.4,3.5-9.4,8,0,1.9.6,3.6,2,4.8,1.3,1.2,3.4,2,5.8,2.4l5.9.9c4.8.7,7.5,1.9,9.6,3.8,2.8,2.5,4.2,6.2,4.2,10.6.1,9.6-7.7,15.2-18.5,15.2Z" stroke-width="0"/>
        </g>
        <g>
          <path d="m14.4,149.5l-9.1-13.7v13.7h-1.8v-17.1h1.7l9.1,13.7v-13.7h1.8v17.1h-1.7Z" stroke-width="0"/>
          <path d="m27.4,149.5v-1.1c-1,1-1.8,1.3-3.4,1.3s-2.6-.3-3.3-1.1c-.6-.6-.9-1.5-.9-2.4,0-2.1,1.4-3.4,4.1-3.4h3.6v-1.1c0-1.7-.9-2.6-3-2.6-1.5,0-2.3.4-3,1.3l-1.2-1.1c1.1-1.4,2.3-1.8,4.2-1.8,3.2,0,4.7,1.4,4.7,3.9v8h-1.8v.1Zm0-5.4h-3.3c-1.8,0-2.6.7-2.6,2.1s.8,2,2.7,2c1,0,1.9-.1,2.6-.8.4-.4.6-1.1.6-2v-1.3Z" stroke-width="0"/>
          <path d="m36.7,149.5c-2,0-3-1.4-3-3.2v-7.2h-1.5v-1.3h1.5v-3.7h1.7v3.7h2.5v1.3h-2.5v7.2c0,1.1.5,1.7,1.6,1.7h.9v1.5h-1.2Z" stroke-width="0"/>
          <path d="m42.2,134.5c-.6,0-1.2-.5-1.2-1.2,0-.6.5-1.2,1.2-1.2.6,0,1.2.5,1.2,1.2,0,.6-.5,1.2-1.2,1.2Zm-.9,15v-11.8h1.7v11.8h-1.7Z" stroke-width="0"/>
          <path d="m55,148.29c-.8.8-1.9,1.3-3.4,1.3-1.4,0-2.6-.5-3.4-1.3-1.2-1.2-1.4-2.9-1.4-4.7s.2-3.5,1.4-4.7c.8-.8,1.9-1.3,3.4-1.3,1.4,0,2.6.5,3.4,1.3,1.2,1.2,1.4,2.9,1.4,4.7,0,1.9-.2,3.5-1.4,4.7Zm-1.2-8.3c-.6-.6-1.3-.9-2.2-.9-.8,0-1.6.3-2.1.9-.9.9-1,2.3-1,3.6s.1,2.8,1,3.6c.6.6,1.3.9,2.1.9s1.6-.3,2.2-.9c.9-.9.9-2.3.9-3.6s-.1-2.8-.9-3.6Z" stroke-width="0"/>
          <path d="m67.7,149.5v-7.3c0-2.1-1.1-3.1-2.9-3.1s-2.9,1.1-2.9,3.1v7.3h-1.7v-11.8h1.7v1.3c.8-1,2-1.4,3.3-1.4s2.3.4,3,1.1c.8.8,1.2,1.9,1.2,3.3v7.6h-1.7v-.1Z" stroke-width="0"/>
          <path d="m80.3,149.5v-1.1c-1,1-1.8,1.3-3.4,1.3s-2.6-.3-3.3-1.1c-.6-.6-.9-1.5-.9-2.4,0-2.1,1.4-3.4,4.1-3.4h3.6v-1.1c0-1.7-.9-2.6-3-2.6-1.5,0-2.3.4-3,1.3l-1.2-1.1c1.1-1.4,2.3-1.8,4.2-1.8,3.2,0,4.7,1.4,4.7,3.9v8h-1.8v.1Zm0-5.4h-3.3c-1.8,0-2.6.7-2.6,2.1s.8,2,2.7,2c1,0,1.9-.1,2.6-.8.4-.4.6-1.1.6-2,0,0,0-1.3,0-1.3Z" stroke-width="0"/>
          <path d="m89.2,149.5c-2.1,0-3-1.3-3-3.1v-13.9h1.7v13.9c0,1.2.4,1.7,1.6,1.7h.9v1.5h-1.2v-.1Z" stroke-width="0"/>
          <path d="m109.5,149.5l-3.9-7.6h-4.1v7.6h-1.8v-17.1h6.6c3,0,5.1,1.8,5.1,4.8,0,2.5-1.5,4.1-3.7,4.6l4.1,7.8h-2.3v-.1Zm-3.5-15.4h-4.6v6.3h4.6c2,0,3.4-1,3.4-3.1.1-2.2-1.4-3.2-3.4-3.2Z" stroke-width="0"/>
          <path d="m116.2,144.09c0,2.6,1.2,4.1,3.5,4.1,1.4,0,2.2-.4,3.1-1.3l1.2,1c-1.2,1.2-2.3,1.8-4.3,1.8-3.1,0-5.2-1.9-5.2-6,0-3.8,1.8-6,4.8-6s4.8,2.2,4.8,5.7v.8h-7.9v-.1Zm5.9-3.3c-.5-1.1-1.5-1.8-2.8-1.8-1.2,0-2.3.7-2.8,1.8-.3.6-.3,1-.4,2h6.2c.1-1,0-1.3-.2-2Z" stroke-width="0"/>
          <path d="m131.5,149.7c-2,0-3.6-.5-4.8-1.7l1.2-1.2c.9,1,2.2,1.4,3.7,1.4,1.9,0,3.1-.7,3.1-2.1,0-1-.6-1.6-2-1.7l-1.9-.2c-2.3-.2-3.5-1.2-3.5-3.2,0-2.2,1.8-3.5,4.3-3.5,1.7,0,3.2.4,4.2,1.3l-1.1,1.1c-.8-.6-1.9-.9-3.1-.9-1.7,0-2.6.7-2.6,1.9,0,1,.6,1.6,2.1,1.7l1.9.2c2.1.2,3.5,1,3.5,3.2-.2,2.4-2.1,3.7-5,3.7Z" stroke-width="0"/>
          <path d="m140.8,144.09c0,2.6,1.2,4.1,3.5,4.1,1.4,0,2.2-.4,3.1-1.3l1.2,1c-1.2,1.2-2.3,1.8-4.3,1.8-3.1,0-5.2-1.9-5.2-6,0-3.8,1.8-6,4.8-6s4.8,2.2,4.8,5.7v.8h-7.9v-.1Zm5.9-3.3c-.5-1.1-1.5-1.8-2.8-1.8-1.2,0-2.3.7-2.8,1.8-.3.6-.3,1-.4,2h6.2c.1-1,0-1.3-.2-2Z" stroke-width="0"/>
          <path d="m159.1,149.5v-1.1c-1,1-1.8,1.3-3.4,1.3s-2.6-.3-3.3-1.1c-.6-.6-.9-1.5-.9-2.4,0-2.1,1.4-3.4,4.1-3.4h3.6v-1.1c0-1.7-.9-2.6-3-2.6-1.5,0-2.3.4-3,1.3l-1.2-1.1c1.1-1.4,2.3-1.8,4.2-1.8,3.2,0,4.7,1.4,4.7,3.9v8h-1.8v.1Zm0-5.4h-3.3c-1.8,0-2.6.7-2.6,2.1s.8,2,2.7,2c1,0,1.9-.1,2.6-.8.4-.4.6-1.1.6-2v-1.3Z" stroke-width="0"/>
          <path d="m171.7,140c-.6-.6-1.1-.9-2-.9-1.7,0-2.8,1.4-2.8,3.2v7.2h-1.7v-11.8h1.7v1.4c.6-1,1.9-1.6,3.3-1.6,1.1,0,2,.3,2.8,1.1l-1.3,1.4Z" stroke-width="0"/>
          <path d="m179,149.7c-3,0-5.2-2-5.2-6s2.3-6,5.2-6c1.6,0,2.7.4,3.9,1.8l-1.2,1.1c-.9-1-1.6-1.3-2.7-1.3-1.2,0-2.1.5-2.7,1.3-.6.8-.8,1.7-.8,3.2s.2,2.4.8,3.2c.6.9,1.6,1.3,2.7,1.3s1.8-.4,2.7-1.3l1.2,1.1c-1.2,1.1-2.3,1.6-3.9,1.6Z" stroke-width="0"/>
          <path d="m193.7,149.5v-7.3c0-2.1-1.1-3.1-2.9-3.1s-3,1.1-3,3.1v7.3h-1.7v-17.1h1.7v6.6c.9-1,2-1.4,3.3-1.4,2.7,0,4.2,1.7,4.2,4.4v7.6h-1.6v-.1Z" stroke-width="0"/>
          <path d="m3.5,173.5v-17.1h1.8v17.1h-1.8Z" stroke-width="0"/>
          <path d="m17.5,173.5v-7.3c0-2.1-1.1-3.1-2.9-3.1s-2.9,1.1-2.9,3.1v7.3h-1.7v-11.8h1.7v1.3c.8-1,2-1.4,3.3-1.4s2.3.4,3,1.1c.8.8,1.2,1.9,1.2,3.3v7.6h-1.7v-.1Z" stroke-width="0"/>
          <path d="m25.6,163.09v10.4h-1.7v-10.4h-1.5v-1.3h1.5v-2.2c0-1.8,1-3.2,3-3.2h1.2v1.5h-.9c-1.1,0-1.6.6-1.6,1.7v2.2h2.5v1.3h-2.5Z" stroke-width="0"/>
          <path d="m37.6,164c-.6-.6-1.1-.9-2-.9-1.7,0-2.8,1.4-2.8,3.2v7.2h-1.7v-11.8h1.6v1.4c.6-1,1.9-1.6,3.3-1.6,1.1,0,2,.3,2.8,1.1l-1.2,1.4Z" stroke-width="0"/>
          <path d="m47.5,173.5v-1.1c-1,1-1.8,1.3-3.4,1.3s-2.6-.3-3.3-1.1c-.6-.6-.9-1.5-.9-2.4,0-2.1,1.4-3.4,4.1-3.4h3.6v-1.1c0-1.7-.9-2.6-3-2.6-1.5,0-2.3.4-3,1.3l-1.2-1.1c1.1-1.4,2.3-1.8,4.2-1.8,3.2,0,4.7,1.4,4.7,3.9v8h-1.8v.1Zm0-5.4h-3.3c-1.8,0-2.6.7-2.6,2.1s.8,2,2.7,2c1,0,1.9-.1,2.6-.8.4-.4.6-1.1.6-2v-1.3Z" stroke-width="0"/>
          <path d="m57.2,173.7c-2,0-3.6-.5-4.8-1.7l1.2-1.2c.9,1,2.2,1.4,3.7,1.4,1.9,0,3.1-.7,3.1-2.1,0-1-.6-1.6-2-1.7l-1.9-.2c-2.3-.2-3.5-1.2-3.5-3.2,0-2.2,1.8-3.5,4.3-3.5,1.7,0,3.2.4,4.2,1.3l-1.1,1.1c-.8-.6-1.9-.9-3.1-.9-1.7,0-2.6.7-2.6,1.9,0,1,.6,1.6,2.1,1.7l1.9.2c2.1.2,3.5,1,3.5,3.2-.2,2.4-2.2,3.7-5,3.7Z" stroke-width="0"/>
          <path d="m68.4,173.5c-2,0-3-1.4-3-3.2v-7.2h-1.5v-1.3h1.5v-3.7h1.7v3.7h2.6v1.3h-2.5v7.2c0,1.1.5,1.7,1.6,1.7h.9v1.5h-1.3Z" stroke-width="0"/>
          <path d="m79.7,164c-.6-.6-1.1-.9-2-.9-1.7,0-2.8,1.4-2.8,3.2v7.2h-1.7v-11.8h1.7v1.4c.6-1,1.9-1.6,3.3-1.6,1.1,0,2,.3,2.8,1.1l-1.3,1.4Z" stroke-width="0"/>
          <path d="m90.7,173.5v-1.3c-.8,1-2,1.5-3.3,1.5s-2.3-.4-3-1.1c-.8-.8-1.2-1.9-1.2-3.3v-7.5h1.7v7.3c0,2.1,1.1,3.1,2.9,3.1s3-1.1,3-3.1v-7.3h1.7v11.8h-1.8v-.1Z" stroke-width="0"/>
          <path d="m101.3,173.7c-3,0-5.2-2-5.2-6s2.3-6,5.2-6c1.6,0,2.7.4,3.9,1.8l-1.2,1.1c-.9-1-1.6-1.3-2.7-1.3-1.2,0-2.1.5-2.7,1.3s-.8,1.7-.8,3.2.2,2.4.8,3.2c.6.9,1.6,1.3,2.7,1.3s1.8-.4,2.7-1.3l1.2,1.1c-1.3,1.1-2.3,1.6-3.9,1.6Z" stroke-width="0"/>
          <path d="m111.8,173.5c-2,0-3-1.4-3-3.2v-7.2h-1.5v-1.3h1.5v-3.7h1.7v3.7h2.5v1.3h-2.5v7.2c0,1.1.5,1.7,1.6,1.7h.9v1.5h-1.2Z" stroke-width="0"/>
          <path d="m123.9,173.5v-1.3c-.8,1-2,1.5-3.3,1.5s-2.3-.4-3-1.1c-.8-.8-1.2-1.9-1.2-3.3v-7.5h1.7v7.3c0,2.1,1.1,3.1,2.9,3.1s3-1.1,3-3.1v-7.3h1.7v11.8h-1.8v-.1Z" stroke-width="0"/>
          <path d="m136.5,164c-.6-.6-1.1-.9-2-.9-1.7,0-2.8,1.4-2.8,3.2v7.2h-1.7v-11.8h1.7v1.4c.6-1,1.9-1.6,3.3-1.6,1.1,0,2,.3,2.8,1.1l-1.3,1.4Z" stroke-width="0"/>
          <path d="m140.3,168.09c0,2.6,1.2,4.1,3.5,4.1,1.4,0,2.2-.4,3.1-1.3l1.2,1c-1.2,1.2-2.3,1.8-4.3,1.8-3.1,0-5.2-1.9-5.2-6,0-3.8,1.8-6,4.8-6s4.8,2.2,4.8,5.7v.8h-7.9v-.1Zm5.9-3.3c-.5-1.1-1.5-1.8-2.8-1.8-1.2,0-2.3.7-2.8,1.8-.3.6-.3,1-.4,2h6.2c.1-1,.1-1.3-.2-2Z" stroke-width="0"/>
          <path d="m160.1,163.09v10.4h-1.7v-10.4h-1.5v-1.3h1.5v-2.2c0-1.8,1-3.2,3-3.2h1.2v1.5h-.9c-1.1,0-1.6.6-1.6,1.7v2.2h2.5v1.3h-2.5Z" stroke-width="0"/>
          <path d="m172.7,172.29c-.8.8-1.9,1.3-3.4,1.3-1.4,0-2.6-.5-3.4-1.3-1.2-1.2-1.4-2.9-1.4-4.7s.2-3.5,1.4-4.7c.8-.8,1.9-1.3,3.4-1.3,1.4,0,2.6.5,3.4,1.3,1.2,1.2,1.4,2.9,1.4,4.7,0,1.9-.2,3.5-1.4,4.7Zm-1.2-8.3c-.6-.6-1.3-.9-2.2-.9-.8,0-1.6.3-2.1.9-.9.9-1,2.3-1,3.6s.1,2.8,1,3.6c.6.6,1.3.9,2.1.9s1.6-.3,2.2-.9c.9-.9.9-2.3.9-3.6s-.1-2.8-.9-3.6Z" stroke-width="0"/>
          <path d="m184.4,164c-.6-.6-1.1-.9-2-.9-1.7,0-2.8,1.4-2.8,3.2v7.2h-1.7v-11.8h1.7v1.4c.6-1,1.9-1.6,3.3-1.6,1.1,0,2,.3,2.8,1.1l-1.3,1.4Z" stroke-width="0"/>
          <path d="m204.2,173.5l-1.4-3.9h-7.5l-1.4,3.9h-1.9l6.3-17.1h1.5l6.3,17.1h-1.9Zm-5.1-14.4l-3.2,9h6.4l-3.2-9Z" stroke-width="0"/>
          <path d="m216,173.5v-1.3c-.8,1-2,1.5-3.3,1.5s-2.3-.4-3-1.1c-.8-.8-1.2-1.9-1.2-3.3v-7.5h1.7v7.3c0,2.1,1.1,3.1,2.9,3.1s3-1.1,3-3.1v-7.3h1.7v11.8h-1.8v-.1Z" stroke-width="0"/>
          <path d="m225.8,173.7c-2,0-3.6-.5-4.8-1.7l1.2-1.2c.9,1,2.2,1.4,3.7,1.4,1.9,0,3.1-.7,3.1-2.1,0-1-.6-1.6-2-1.7l-1.9-.2c-2.3-.2-3.5-1.2-3.5-3.2,0-2.2,1.8-3.5,4.3-3.5,1.7,0,3.2.4,4.2,1.3l-1.1,1.1c-.8-.6-1.9-.9-3.1-.9-1.7,0-2.6.7-2.6,1.9,0,1,.6,1.6,2.1,1.7l1.9.2c2.1.2,3.5,1,3.5,3.2-.2,2.4-2.2,3.7-5,3.7Z" stroke-width="0"/>
          <path d="m237,173.5c-2,0-3-1.4-3-3.2v-7.2h-1.5v-1.3h1.5v-3.7h1.7v3.7h2.5v1.3h-2.5v7.2c0,1.1.5,1.7,1.6,1.7h.9v1.5h-1.2Z" stroke-width="0"/>
          <path d="m248.3,164c-.6-.6-1.1-.9-2-.9-1.7,0-2.8,1.4-2.8,3.2v7.2h-1.8v-11.8h1.7v1.4c.6-1,1.9-1.6,3.3-1.6,1.1,0,2,.3,2.8,1.1l-1.2,1.4Z" stroke-width="0"/>
          <path d="m258.2,173.5v-1.1c-1,1-1.8,1.3-3.4,1.3s-2.6-.3-3.3-1.1c-.6-.6-.9-1.5-.9-2.4,0-2.1,1.4-3.4,4.1-3.4h3.6v-1.1c0-1.7-.9-2.6-3-2.6-1.5,0-2.3.4-3,1.3l-1.2-1.1c1.1-1.4,2.3-1.8,4.2-1.8,3.2,0,4.7,1.4,4.7,3.9v8h-1.8v.1Zm0-5.4h-3.3c-1.8,0-2.6.7-2.6,2.1s.8,2,2.7,2c1,0,1.9-.1,2.6-.8.4-.4.6-1.1.6-2v-1.3h0Z" stroke-width="0"/>
          <path d="m267.1,173.5c-2.1,0-3-1.3-3-3.1v-13.9h1.7v13.9c0,1.2.4,1.7,1.6,1.7h.9v1.5h-1.2v-.1Z" stroke-width="0"/>
          <path d="m272.2,158.5c-.6,0-1.2-.5-1.2-1.2,0-.6.5-1.2,1.2-1.2.6,0,1.2.5,1.2,1.2,0,.6-.6,1.2-1.2,1.2Zm-.9,15v-11.8h1.7v11.8h-1.7Z" stroke-width="0"/>
          <path d="m284.1,173.5v-1.1c-1,1-1.8,1.3-3.4,1.3s-2.6-.3-3.3-1.1c-.6-.6-.9-1.5-.9-2.4,0-2.1,1.4-3.4,4.1-3.4h3.6v-1.1c0-1.7-.9-2.6-3-2.6-1.5,0-2.3.4-3,1.3l-1.2-1.1c1.1-1.4,2.3-1.8,4.2-1.8,3.2,0,4.7,1.4,4.7,3.9v8h-1.8v.1Zm0-5.4h-3.3c-1.8,0-2.6.7-2.6,2.1s.8,2,2.7,2c1,0,1.9-.1,2.6-.8.4-.4.6-1.1.6-2v-1.3h0Z" stroke-width="0"/>
        </g>
        <g>
          <path d="m10.8,203l-1-2.7h-5.3l-1,2.7h-1.4l4.6-12.1h1.1l4.4,12.1h-1.4Zm-3.6-10.2l-2.3,6.4h4.5l-2.2-6.4Z" stroke-width="0"/>
          <path d="m19.9,203v-5.1c0-1.5-.8-2.2-2.1-2.2s-2.1.8-2.1,2.2v5.2h-1.2v-8.4h1.2v.9c.6-.7,1.4-1,2.3-1s1.6.3,2.1.8c.6.6.9,1.4.9,2.3v5.4h-1.1v-.1Z" stroke-width="0"/>
          <path d="m36.7,203l-1-2.7h-5.3l-1,2.7h-1.4l4.5-12.1h1.2l4.4,12.1h-1.4Zm-3.6-10.2l-2.3,6.4h4.5l-2.2-6.4Z" stroke-width="0"/>
          <path d="m45.7,203v-.9c-.6.7-1.4,1-2.4,1-.9,0-1.6-.3-2.2-.8-.6-.6-.9-1.4-.9-2.3v-5.3h1.2v5.2c0,1.5.8,2.2,2,2.2,1.3,0,2.1-.8,2.1-2.2v-5.2h1.2v8.4h-1v-.1Z" stroke-width="0"/>
          <path d="m53.2,203.09c-1.4,0-2.5-.3-3.4-1.2l.8-.8c.7.7,1.6,1,2.6,1,1.4,0,2.2-.5,2.2-1.5,0-.7-.4-1.1-1.4-1.2l-1.4-.1c-1.6-.1-2.5-.9-2.5-2.2,0-1.5,1.3-2.4,3.1-2.4,1.2,0,2.3.3,3,.9l-.8.8c-.6-.5-1.4-.7-2.2-.7-1.2,0-1.9.5-1.9,1.4,0,.7.4,1.1,1.5,1.2l1.3.1c1.5.1,2.5.7,2.5,2.3,0,1.5-1.4,2.4-3.4,2.4Z" stroke-width="0"/>
          <path d="m61.7,203c-1.4,0-2.1-1-2.1-2.2v-5.1h-1.1v-.9h1.1v-2.6h1.2v2.6h1.8v.9h-1.8v5.1c0,.8.4,1.2,1.1,1.2h.6v1.1h-.8v-.1Z" stroke-width="0"/>
          <path d="m70.3,196.2c-.5-.5-.8-.6-1.4-.6-1.2,0-2,1-2,2.2v5.1h-1.2v-8.4h1.2v1c.5-.7,1.4-1.1,2.3-1.1.8,0,1.4.2,2,.8l-.9,1Z" stroke-width="0"/>
          <path d="m77.9,203v-.8c-.7.7-1.3.9-2.4.9-1.2,0-1.8-.2-2.4-.8-.4-.4-.6-1-.6-1.7,0-1.5,1-2.4,2.9-2.4h2.5v-.8c0-1.2-.6-1.8-2.1-1.8-1.1,0-1.6.3-2.1,1l-.8-.8c.7-1,1.6-1.2,3-1.2,2.2,0,3.3,1,3.3,2.8v5.7h-1.3v-.1Zm0-3.9h-2.3c-1.3,0-1.9.5-1.9,1.5s.6,1.4,1.9,1.4c.7,0,1.3-.1,1.9-.6.3-.3.4-.7.4-1.4v-.9Z" stroke-width="0"/>
          <path d="m84.8,203c-1.5,0-2.1-1-2.1-2.2v-9.9h1.2v9.8c0,.8.3,1.2,1.1,1.2h.7v1.1h-.9Z" stroke-width="0"/>
          <path d="m88.9,192.29c-.5,0-.8-.4-.8-.8s.4-.8.8-.8.9.4.9.8-.4.8-.9.8Zm-.6,10.7v-8.4h1.2v8.4h-1.2Z" stroke-width="0"/>
          <path d="m97.9,203v-.8c-.7.7-1.3.9-2.4.9-1.2,0-1.8-.2-2.4-.8-.4-.4-.6-1-.6-1.7,0-1.5,1-2.4,2.9-2.4h2.5v-.8c0-1.2-.6-1.8-2.1-1.8-1.1,0-1.6.3-2.1,1l-.8-.8c.7-1,1.6-1.2,3-1.2,2.2,0,3.3,1,3.3,2.8v5.7h-1.3v-.1Zm0-3.9h-2.3c-1.3,0-1.9.5-1.9,1.5s.6,1.4,1.9,1.4c.7,0,1.3-.1,1.9-.6.3-.3.4-.7.4-1.4v-.9Z" stroke-width="0"/>
          <path d="m108.1,203v-5.1c0-1.5-.8-2.2-2.1-2.2s-2.1.8-2.1,2.2v5.2h-1.2v-8.4h1.2v.9c.6-.7,1.4-1,2.3-1s1.6.3,2.1.8c.6.6.9,1.4.9,2.3v5.4h-1.1v-.1Z" stroke-width="0"/>
          <path d="m124.9,201.7c-.8.9-1.9,1.4-3.2,1.4-1.2,0-2.3-.4-3.1-1.3-1.1-1.1-1.1-2.3-1.1-4.9s0-3.8,1.1-4.9c.8-.8,1.9-1.3,3.1-1.3,1.6,0,2.5.6,3.6,1.6l-.9.9c-.9-.9-1.5-1.4-2.8-1.4-.8,0-1.6.3-2.1.9-.8.8-.9,1.6-.9,4.1s.1,3.4.9,4.1c.5.5,1.3.9,2.1.9.9,0,1.7-.4,2.3-1,.5-.6.7-1.3.7-2.2v-.9h-2.9v-1.1h4.2v1.9c0,1.5-.3,2.4-1,3.2Z" stroke-width="0"/>
          <path d="m134.6,202.2c-.6.6-1.4,1-2.4,1s-1.8-.4-2.4-1c-.8-.9-1-2-1-3.3s.2-2.5,1-3.3c.6-.6,1.4-1,2.4-1s1.8.4,2.4,1c.9.9,1,2,1,3.3,0,1.2-.2,2.4-1,3.3Zm-.9-6c-.4-.4-.9-.6-1.5-.6s-1.1.2-1.5.6c-.6.6-.7,1.6-.7,2.6,0,.9.1,2,.7,2.6.4.4.9.6,1.5.6s1.1-.2,1.5-.6c.6-.6.7-1.6.7-2.6,0-.9-.1-1.9-.7-2.6Z" stroke-width="0"/>
          <path d="m141.4,203h-1.1l-3.1-8.4h1.3l2.3,6.7,2.3-6.7h1.3l-3,8.4Z" stroke-width="0"/>
          <path d="m147.4,199.09c0,1.8.9,2.9,2.5,2.9,1,0,1.5-.3,2.2-1l.8.7c-.8.9-1.6,1.3-3.1,1.3-2.2,0-3.7-1.3-3.7-4.3,0-2.7,1.3-4.3,3.4-4.3s3.4,1.6,3.4,4v.6h-5.5v.1Zm4.2-2.3c-.3-.8-1.1-1.3-2-1.3s-1.6.5-2,1.3c-.2.5-.2.7-.3,1.4h4.4c.1-.7.1-.9-.1-1.4Z" stroke-width="0"/>
          <path d="m160.9,196.2c-.5-.5-.8-.6-1.4-.6-1.2,0-2,1-2,2.2v5.1h-1.2v-8.4h1.2v1c.5-.7,1.4-1.1,2.3-1.1.8,0,1.4.2,2,.8l-.9,1Z" stroke-width="0"/>
          <path d="m169.3,203v-5.1c0-1.5-.8-2.2-2.1-2.2s-2.1.8-2.1,2.2v5.2h-1.2v-8.4h1.2v.9c.6-.7,1.4-1,2.3-1s1.6.3,2.1.8c.6.6.9,1.4.9,2.3v5.4h-1.1v-.1Z" stroke-width="0"/>
          <path d="m184.8,203v-5.1c0-1.5-.8-2.2-2.1-2.2-1.2,0-2.1.8-2.1,2.1v5.3h-1.2v-5.2c0-1.5-.8-2.2-2.1-2.2s-2.1.8-2.1,2.2v5.2h-1.2v-8.4h1.2v.9c.6-.7,1.4-1,2.4-1,1.2,0,2.1.5,2.6,1.4.6-.9,1.6-1.4,2.8-1.4.9,0,1.6.3,2.2.8.6.6.9,1.4.9,2.3v5.4h-1.3v-.1Z" stroke-width="0"/>
          <path d="m190.4,199.09c0,1.8.9,2.9,2.5,2.9,1,0,1.5-.3,2.2-1l.8.7c-.9.9-1.6,1.3-3.1,1.3-2.2,0-3.7-1.3-3.7-4.3,0-2.7,1.3-4.3,3.4-4.3s3.4,1.6,3.4,4v.6h-5.5v.1Zm4.1-2.3c-.3-.8-1.1-1.3-2-1.3s-1.6.5-2,1.3c-.2.5-.2.7-.3,1.4h4.4c.2-.7.1-.9-.1-1.4Z" stroke-width="0"/>
          <path d="m204.6,203v-5.1c0-1.5-.8-2.2-2.1-2.2s-2.1.8-2.1,2.2v5.2h-1.2v-8.4h1.2v.9c.6-.7,1.4-1,2.3-1s1.6.3,2.1.8c.6.6.9,1.4.9,2.3v5.4h-1.1v-.1Z" stroke-width="0"/>
          <path d="m211.7,203c-1.4,0-2.1-1-2.1-2.2v-5.1h-1.1v-.9h1.1v-2.6h1.2v2.6h1.8v.9h-1.8v5.1c0,.8.4,1.2,1.1,1.2h.6v1.1h-.8v-.1Z" stroke-width="0"/>
          <path d="m220.6,203v-12.1h1.3v12.1h-1.3Z" stroke-width="0"/>
          <path d="m231.1,203v-5.1c0-1.5-.8-2.2-2.1-2.2s-2.1.8-2.1,2.2v5.2h-1.2v-8.4h1.2v.9c.6-.7,1.4-1,2.3-1s1.6.3,2.1.8c.6.6.9,1.4.9,2.3v5.4h-1.1v-.1Z" stroke-width="0"/>
          <path d="m236.5,192.29c-.5,0-.8-.4-.8-.8s.4-.8.8-.8.8.4.8.8-.4.8-.8.8Zm-.6,10.7v-8.4h1.2v8.4h-1.2Z" stroke-width="0"/>
          <path d="m243.1,203c-1.4,0-2.1-1-2.1-2.2v-5.1h-1.1v-.9h1.1v-2.6h1.2v2.6h1.8v.9h-1.8v5.1c0,.8.4,1.2,1.1,1.2h.6v1.1h-.8v-.1Z" stroke-width="0"/>
          <path d="m247.6,192.29c-.5,0-.8-.4-.8-.8s.4-.8.8-.8c.5,0,.9.4.9.8s-.5.8-.9.8Zm-.6,10.7v-8.4h1.2v8.4h-1.2Z" stroke-width="0"/>
          <path d="m256.6,203v-.8c-.7.7-1.3.9-2.4.9-1.2,0-1.8-.2-2.4-.8-.4-.4-.6-1-.6-1.7,0-1.5,1-2.4,2.9-2.4h2.5v-.8c0-1.2-.6-1.8-2.1-1.8-1.1,0-1.6.3-2.1,1l-.8-.8c.7-1,1.6-1.2,3-1.2,2.2,0,3.3,1,3.3,2.8v5.7h-1.3v-.1Zm0-3.9h-2.3c-1.3,0-1.9.5-1.9,1.5s.6,1.4,1.9,1.4c.7,0,1.3-.1,1.9-.6.3-.3.4-.7.4-1.4v-.9Z" stroke-width="0"/>
          <path d="m263.7,203c-1.4,0-2.1-1-2.1-2.2v-5.1h-1.1v-.9h1.1v-2.6h1.2v2.6h1.8v.9h-1.8v5.1c0,.8.4,1.2,1.1,1.2h.6v1.1h-.8v-.1Z" stroke-width="0"/>
          <path d="m268.2,192.29c-.5,0-.8-.4-.8-.8s.4-.8.8-.8c.5,0,.8.4.8.8s-.3.8-.8.8Zm-.6,10.7v-8.4h1.2v8.4h-1.2Z" stroke-width="0"/>
          <path d="m275.3,203h-1.1l-3.1-8.4h1.3l2.3,6.7,2.3-6.7h1.3l-3,8.4Z" stroke-width="0"/>
          <path d="m281.2,199.09c0,1.8.9,2.9,2.5,2.9,1,0,1.5-.3,2.2-1l.8.7c-.8.9-1.6,1.3-3.1,1.3-2.2,0-3.7-1.3-3.7-4.3,0-2.7,1.3-4.3,3.4-4.3s3.4,1.6,3.4,4v.6h-5.5v.1Zm4.2-2.3c-.3-.8-1.1-1.3-2-1.3s-1.6.5-2,1.3c-.2.5-.2.7-.3,1.4h4.4c.1-.7.1-.9-.1-1.4Z" stroke-width="0"/>
        </g>
        <rect y="184.39" width="290.2" height=".5" stroke-width="0"/>
        <rect y="209.09" width="290.2" height=".5" stroke-width="0"/>
      </g>
      <g>
        <polygon points="286.3 109.59 253.5 123.89 253.5 83.7 286.3 69.39 286.3 109.59" fill="#094268" stroke="#fff" stroke-linejoin="round" stroke-width=".99"/>
        <polygon points="220.7 109.59 253.5 123.89 253.5 83.7 220.7 69.39 220.7 109.59" fill="#faa61a" stroke="#fff" stroke-linejoin="round" stroke-width=".99"/>
        <polygon points="286.3 69.39 253.5 83.7 220.7 69.39 253.5 54.99 286.3 69.39" fill="#fff" stroke="#fff" stroke-linejoin="round" stroke-width=".99"/>
        <polygon points="253.5 54.99 220.7 69.39 220.7 29.19 253.5 14.79 253.5 54.99" fill="#094268" stroke="#fff" stroke-linejoin="round" stroke-width=".99"/>
        <polygon points="188 54.99 220.7 69.39 220.7 29.19 188 14.79 188 54.99" fill="#faa61a" stroke="#fff" stroke-linejoin="round" stroke-width=".99"/>
        <polygon points="253.5 14.79 220.7 29.19 188 14.79 220.7 .5 253.5 14.79" fill="#faa61a" stroke="#fff" stroke-linejoin="round" stroke-width=".99"/>
      </g>
    </g>
  </g>
</svg>