<?xml version="1.0" encoding="UTF-8" standalone="no"?>
<!-- Created with Inkscape (http://www.inkscape.org/) -->

<svg
   xmlns:dc="http://purl.org/dc/elements/1.1/"
   xmlns:cc="http://creativecommons.org/ns#"
   xmlns:rdf="http://www.w3.org/1999/02/22-rdf-syntax-ns#"
   xmlns:svg="http://www.w3.org/2000/svg"
   xmlns="http://www.w3.org/2000/svg"
   xmlns:sodipodi="http://sodipodi.sourceforge.net/DTD/sodipodi-0.dtd"
   xmlns:inkscape="http://www.inkscape.org/namespaces/inkscape"
   version="1.1"
   id="svg2"
   xml:space="preserve"
   width="386.89334"
   height="279.51999"
   viewBox="0 0 386.89334 279.51999"
   sodipodi:docname="NCRIS_PROVIDER_reverse.svg"
   inkscape:version="0.92.4 5da689c313, 2019-01-14"><metadata
     id="metadata8"><rdf:RDF><cc:Work
         rdf:about=""><dc:format>image/svg+xml</dc:format><dc:type
           rdf:resource="http://purl.org/dc/dcmitype/StillImage" /><dc:title></dc:title></cc:Work></rdf:RDF></metadata><defs
     id="defs6" /><sodipodi:namedview
     pagecolor="#ffffff"
     bordercolor="#666666"
     borderopacity="1"
     objecttolerance="10"
     gridtolerance="10"
     guidetolerance="10"
     inkscape:pageopacity="0"
     inkscape:pageshadow="2"
     inkscape:window-width="1424"
     inkscape:window-height="1132"
     id="namedview4"
     showgrid="false"
     inkscape:pagecheckerboard="true"
     inkscape:zoom="1.6886091"
     inkscape:cx="231.68865"
     inkscape:cy="113.27344"
     inkscape:window-x="1410"
     inkscape:window-y="182"
     inkscape:window-maximized="0"
     inkscape:current-layer="g10" /><g
     id="g10"
     inkscape:groupmode="layer"
     inkscape:label="ink_ext_XXXXXX"
     transform="matrix(1.3333333,0,0,-1.3333333,0,279.52)"><g
       id="g1261"
       style="fill:#ffffff"><path
         d="M 35.2301,87.2051 11.3844,123.517 V 87.2051 H 3.55625 V 138.81 H 10.732 l 23.8457,-36.239 v 36.239 h 7.8282 V 87.2051 h -7.1758"
         style="fill:#ffffff;fill-opacity:1;fill-rule:nonzero;stroke:none;stroke-width:0.1"
         id="path14"
         inkscape:connector-curvature="0" /><path
         d="m 71.109,86.7699 c -5.3645,0 -10.0031,1.9571 -13.5539,5.509 -5.0742,5.0731 -5.0008,10.7991 -5.0008,20.7291 0,9.93 -0.0734,15.655 5.0008,20.729 3.5508,3.551 8.1894,5.508 13.5539,5.508 9.4941,0 16.5976,-5.581 18.409,-15.873 h -7.9727 c -1.2324,5.219 -4.7109,8.843 -10.4363,8.843 -3.0449,0 -5.7988,-1.16 -7.6106,-3.117 -2.5371,-2.754 -3.1171,-5.726 -3.1171,-16.09 0,-10.365 0.58,-13.3361 3.1171,-16.09 1.8118,-1.9571 4.5657,-3.1168 7.6106,-3.1168 5.7254,0 9.2773,3.6238 10.5086,8.8418 H 89.518 C 87.7789,92.3512 80.4586,86.7699 71.109,86.7699"
         style="fill:#ffffff;fill-opacity:1;fill-rule:nonzero;stroke:none;stroke-width:0.1"
         id="path16"
         inkscape:connector-curvature="0" /><path
         d="m 117.93,131.78 h -11.597 v -16.163 h 11.597 c 5.219,0 8.77,2.972 8.77,8.045 0,5.074 -3.551,8.118 -8.77,8.118 z m 9.059,-44.5749 -10.87,21.7439 h -9.786 V 87.2051 H 98.5055 V 138.81 H 118.51 c 9.784,0 16.018,-6.305 16.018,-15.075 0,-7.393 -4.494,-12.105 -10.292,-13.699 l 11.886,-22.8309 h -9.133"
         style="fill:#ffffff;fill-opacity:1;fill-rule:nonzero;stroke:none;stroke-width:0.1"
         id="path18"
         inkscape:connector-curvature="0" /><path
         d="M 144.532,87.2051 V 138.81 h 7.828 V 87.2051 h -7.828"
         style="fill:#ffffff;fill-opacity:1;fill-rule:nonzero;stroke:none;stroke-width:0.1"
         id="path20"
         inkscape:connector-curvature="0" /><path
         d="m 178.089,86.7699 c -7.756,0 -13.336,1.8121 -18.264,6.8141 l 5.217,5.1461 c 3.769,-3.7692 7.9,-4.9289 13.191,-4.9289 6.741,0 10.655,2.8988 10.655,7.8998 0,2.247 -0.653,4.131 -2.03,5.364 -1.304,1.232 -2.609,1.739 -5.652,2.174 l -6.088,0.87 c -4.205,0.58 -7.539,2.029 -9.785,4.131 -2.537,2.392 -3.77,5.653 -3.77,9.857 0,8.988 6.524,15.148 17.25,15.148 6.813,0 11.598,-1.739 16.018,-5.87 l -5,-4.929 c -3.189,3.044 -6.887,3.986 -11.234,3.986 -6.088,0 -9.422,-3.479 -9.422,-8.045 0,-1.884 0.58,-3.551 1.957,-4.783 1.304,-1.16 3.406,-2.03 5.797,-2.392 l 5.871,-0.87 c 4.783,-0.725 7.465,-1.884 9.64,-3.841 2.827,-2.465 4.204,-6.161 4.204,-10.582 0,-9.4952 -7.756,-15.1491 -18.555,-15.1491"
         style="fill:#ffffff;fill-opacity:1;fill-rule:nonzero;stroke:none;stroke-width:0.1"
         id="path22"
         inkscape:connector-curvature="0" /></g><g
       id="g1254"
       style="fill:#ffffff"><path
         d="M 14.3523,60.0719 5.27969,73.7781 V 60.0719 H 3.45547 v 17.0902 h 1.72812 l 9.07271,-13.657 v 13.657 h 1.8242 V 60.0719 h -1.7282"
         style="fill:#ffffff;fill-opacity:1;fill-rule:nonzero;stroke:none;stroke-width:0.1"
         id="path24"
         inkscape:connector-curvature="0" /><path
         d="m 27.4082,65.5211 h -3.3125 c -1.7758,0 -2.6402,-0.7199 -2.6402,-2.0879 0,-1.3684 0.8398,-2.016 2.7125,-2.016 1.0078,0 1.8961,0.0707 2.6402,0.7918 0.4074,0.3832 0.6,1.0558 0.6,2.0402 z m 0,-5.4492 V 61.2 c -0.9605,-0.9602 -1.8242,-1.2719 -3.4086,-1.2719 -1.632,0 -2.5918,0.3117 -3.3359,1.0801 -0.5762,0.577 -0.8883,1.4648 -0.8883,2.4008 0,2.064 1.4398,3.4082 4.0805,3.4082 h 3.5523 v 1.1277 c 0,1.7289 -0.8644,2.5922 -3.0242,2.5922 -1.5125,0 -2.2805,-0.3601 -2.9762,-1.3441 l -1.1765,1.08 c 1.0562,1.368 2.2566,1.7532 4.1765,1.7532 3.1684,0 4.7285,-1.3692 4.7285,-3.9371 v -8.0172 h -1.7281"
         style="fill:#ffffff;fill-opacity:1;fill-rule:nonzero;stroke:none;stroke-width:0.1"
         id="path26"
         inkscape:connector-curvature="0" /><path
         d="m 36.6477,60.0719 c -2.0164,0 -3.0247,1.416 -3.0247,3.1691 v 7.2481 h -1.4882 v 1.3199 h 1.4882 v 3.6969 h 1.7282 V 71.809 h 2.5203 v -1.3199 h -2.5203 v -7.2 c 0,-1.0801 0.5039,-1.7282 1.6082,-1.7282 h 0.9121 v -1.489 h -1.2238"
         style="fill:#ffffff;fill-opacity:1;fill-rule:nonzero;stroke:none;stroke-width:0.1"
         id="path28"
         inkscape:connector-curvature="0" /><path
         d="M 41.3027,60.0719 V 71.882 h 1.7282 V 60.0719 Z m 0.8645,15.0742 c -0.6484,0 -1.1766,0.5277 -1.1766,1.1758 0,0.648 0.5282,1.1761 1.1766,1.1761 0.6476,0 1.1996,-0.5281 1.1996,-1.1761 0,-0.6481 -0.552,-1.1758 -1.1996,-1.1758"
         style="fill:#ffffff;fill-opacity:1;fill-rule:nonzero;stroke:none;stroke-width:0.1"
         id="path30"
         inkscape:connector-curvature="0" /><path
         d="m 53.7348,69.625 c -0.5516,0.552 -1.32,0.8641 -2.1602,0.8641 -0.8398,0 -1.584,-0.3121 -2.1355,-0.8641 -0.8645,-0.8641 -0.9606,-2.3281 -0.9606,-3.648 0,-1.32 0.0961,-2.784 0.9606,-3.6481 0.5515,-0.5519 1.2957,-0.8641 2.1355,-0.8641 0.8402,0 1.6086,0.3122 2.1602,0.8641 0.8644,0.8641 0.9367,2.3281 0.9367,3.6481 0,1.3199 -0.0723,2.7839 -0.9367,3.648 z m 1.2242,-8.352 c -0.816,-0.816 -1.9438,-1.3449 -3.3844,-1.3449 -1.4398,0 -2.568,0.5289 -3.3844,1.3449 -1.1996,1.2239 -1.4398,2.8801 -1.4398,4.704 0,1.8242 0.2402,3.48 1.4398,4.7039 0.8164,0.816 1.9446,1.3453 3.3844,1.3453 1.4406,0 2.5684,-0.5293 3.3844,-1.3453 1.2004,-1.2239 1.4402,-2.8797 1.4402,-4.7039 0,-1.8239 -0.2398,-3.4801 -1.4402,-4.704"
         style="fill:#ffffff;fill-opacity:1;fill-rule:nonzero;stroke:none;stroke-width:0.1"
         id="path32"
         inkscape:connector-curvature="0" /><path
         d="m 67.6547,60.0719 v 7.273 c 0,2.0883 -1.1277,3.1442 -2.9043,3.1442 -1.7758,0 -2.9281,-1.0801 -2.9281,-3.1442 v -7.273 H 60.0941 V 71.882 h 1.7282 v -1.2968 c 0.8402,0.9609 1.9922,1.441 3.3125,1.441 1.2718,0 2.3043,-0.3852 3.0246,-1.1043 0.8394,-0.8168 1.2238,-1.9207 1.2238,-3.2887 v -7.5613 h -1.7285"
         style="fill:#ffffff;fill-opacity:1;fill-rule:nonzero;stroke:none;stroke-width:0.1"
         id="path34"
         inkscape:connector-curvature="0" /><path
         d="m 80.2789,65.5211 h -3.3125 c -1.7762,0 -2.6402,-0.7199 -2.6402,-2.0879 0,-1.3684 0.8398,-2.016 2.7125,-2.016 1.0078,0 1.8961,0.0707 2.6398,0.7918 0.4078,0.3832 0.6004,1.0558 0.6004,2.0402 z m 0,-5.4492 V 61.2 c -0.9605,-0.9602 -1.8242,-1.2719 -3.409,-1.2719 -1.6316,0 -2.5918,0.3117 -3.3355,1.0801 -0.5766,0.577 -0.8883,1.4648 -0.8883,2.4008 0,2.064 1.4398,3.4082 4.0805,3.4082 h 3.5523 v 1.1277 c 0,1.7289 -0.8644,2.5922 -3.0246,2.5922 -1.5121,0 -2.2801,-0.3601 -2.9762,-1.3441 l -1.1761,1.08 c 1.0562,1.368 2.2566,1.7532 4.1761,1.7532 3.1688,0 4.7285,-1.3692 4.7285,-3.9371 v -8.0172 h -1.7277"
         style="fill:#ffffff;fill-opacity:1;fill-rule:nonzero;stroke:none;stroke-width:0.1"
         id="path36"
         inkscape:connector-curvature="0" /><path
         d="m 89.1578,60.0719 c -2.064,0 -3,1.3453 -3,3.1441 v 13.9461 h 1.7277 v -13.873 c 0,-1.1532 0.3844,-1.7282 1.584,-1.7282 h 0.9364 v -1.489 h -1.2481"
         style="fill:#ffffff;fill-opacity:1;fill-rule:nonzero;stroke:none;stroke-width:0.1"
         id="path38"
         inkscape:connector-curvature="0" /><path
         d="m 106.006,75.5301 h -4.561 v -6.2653 h 4.561 c 1.992,0 3.408,1.0332 3.408,3.1204 0,2.0886 -1.416,3.1449 -3.408,3.1449 z m 3.432,-15.4582 -3.888,7.5851 h -4.105 v -7.5851 h -1.8239 v 17.0902 h 6.5529 c 2.976,0 5.064,-1.8 5.064,-4.7531 0,-2.4961 -1.512,-4.1281 -3.72,-4.584 l 4.056,-7.7531 h -2.136"
         style="fill:#ffffff;fill-opacity:1;fill-rule:nonzero;stroke:none;stroke-width:0.1"
         id="path40"
         inkscape:connector-curvature="0" /><path
         d="m 122.013,68.7852 c -0.456,1.0796 -1.512,1.7757 -2.76,1.7757 -1.248,0 -2.304,-0.6961 -2.76,-1.7757 -0.264,-0.6481 -0.312,-1.0082 -0.36,-1.968 h 6.24 c -0.048,0.9598 -0.096,1.3199 -0.36,1.968 z m -5.88,-3.2641 c 0,-2.5922 1.224,-4.0801 3.48,-4.0801 1.368,0 2.16,0.4078 3.096,1.3442 l 1.177,-1.0321 c -1.201,-1.2011 -2.305,-1.825 -4.321,-1.825 -3.12,0 -5.16,1.8719 -5.16,6.0489 0,3.816 1.848,6.0492 4.848,6.0492 3.048,0 4.849,-2.209 4.849,-5.7133 v -0.7918 h -7.969"
         style="fill:#ffffff;fill-opacity:1;fill-rule:nonzero;stroke:none;stroke-width:0.1"
         id="path42"
         inkscape:connector-curvature="0" /><path
         d="m 131.493,59.9281 c -1.992,0 -3.553,0.4559 -4.847,1.7051 l 1.151,1.152 c 0.936,-0.9852 2.208,-1.368 3.673,-1.368 1.943,0 3.144,0.6949 3.144,2.0879 0,1.032 -0.6,1.6078 -1.969,1.7281 l -1.944,0.168 c -2.304,0.1918 -3.528,1.2238 -3.528,3.1679 0,2.1598 1.824,3.4571 4.344,3.4571 1.68,0 3.193,-0.409 4.249,-1.2723 l -1.128,-1.1289 c -0.84,0.648 -1.92,0.9359 -3.145,0.9359 -1.728,0 -2.641,-0.7437 -2.641,-1.9437 0,-1.0082 0.577,-1.6082 2.065,-1.7281 l 1.896,-0.168 c 2.065,-0.1922 3.481,-0.984 3.481,-3.1922 0,-2.2797 -1.944,-3.6008 -4.801,-3.6008"
         style="fill:#ffffff;fill-opacity:1;fill-rule:nonzero;stroke:none;stroke-width:0.1"
         id="path44"
         inkscape:connector-curvature="0" /><path
         d="m 146.638,68.7852 c -0.457,1.0796 -1.512,1.7757 -2.761,1.7757 -1.248,0 -2.304,-0.6961 -2.761,-1.7757 -0.264,-0.6481 -0.311,-1.0082 -0.359,-1.968 h 6.24 c -0.048,0.9598 -0.096,1.3199 -0.359,1.968 z m -5.881,-3.2641 c 0,-2.5922 1.224,-4.0801 3.48,-4.0801 1.368,0 2.16,0.4078 3.096,1.3442 l 1.177,-1.0321 c -1.2,-1.2011 -2.304,-1.825 -4.322,-1.825 -3.119,0 -5.16,1.8719 -5.16,6.0489 0,3.816 1.849,6.0492 4.849,6.0492 3.048,0 4.849,-2.209 4.849,-5.7133 v -0.7918 h -7.969"
         style="fill:#ffffff;fill-opacity:1;fill-rule:nonzero;stroke:none;stroke-width:0.1"
         id="path46"
         inkscape:connector-curvature="0" /><path
         d="m 159.094,65.5211 h -3.313 c -1.776,0 -2.639,-0.7199 -2.639,-2.0879 0,-1.3684 0.839,-2.016 2.712,-2.016 1.007,0 1.895,0.0707 2.639,0.7918 0.408,0.3832 0.601,1.0558 0.601,2.0402 z m 0,-5.4492 V 61.2 c -0.96,-0.9602 -1.824,-1.2719 -3.409,-1.2719 -1.631,0 -2.592,0.3117 -3.336,1.0801 -0.577,0.577 -0.888,1.4648 -0.888,2.4008 0,2.064 1.44,3.4082 4.081,3.4082 h 3.552 v 1.1277 c 0,1.7289 -0.865,2.5922 -3.025,2.5922 -1.511,0 -2.28,-0.3601 -2.976,-1.3441 l -1.176,1.08 c 1.057,1.368 2.256,1.7532 4.176,1.7532 3.169,0 4.728,-1.3692 4.728,-3.9371 v -8.0172 h -1.727"
         style="fill:#ffffff;fill-opacity:1;fill-rule:nonzero;stroke:none;stroke-width:0.1"
         id="path48"
         inkscape:connector-curvature="0" /><path
         d="m 171.621,69.625 c -0.647,0.648 -1.128,0.8641 -2.04,0.8641 -1.729,0 -2.832,-1.368 -2.832,-3.168 V 60.0719 H 165.02 V 71.882 h 1.729 v -1.441 c 0.648,0.984 1.943,1.5852 3.312,1.5852 1.127,0 1.993,-0.2653 2.833,-1.1043 l -1.273,-1.2969"
         style="fill:#ffffff;fill-opacity:1;fill-rule:nonzero;stroke:none;stroke-width:0.1"
         id="path50"
         inkscape:connector-curvature="0" /><path
         d="m 178.966,59.9281 c -2.977,0 -5.233,2.0168 -5.233,6.0489 0,4.032 2.256,6.0492 5.233,6.0492 1.632,0 2.664,-0.4332 3.888,-1.7532 l -1.176,-1.1039 c -0.888,0.9848 -1.585,1.32 -2.712,1.32 -1.153,0 -2.114,-0.4559 -2.737,-1.3442 -0.552,-0.7679 -0.768,-1.6801 -0.768,-3.1679 0,-1.4879 0.216,-2.4 0.768,-3.168 0.623,-0.8879 1.584,-1.3442 2.737,-1.3442 1.127,0 1.824,0.359 2.712,1.3442 l 1.176,-1.1289 c -1.224,-1.3192 -2.256,-1.752 -3.888,-1.752"
         style="fill:#ffffff;fill-opacity:1;fill-rule:nonzero;stroke:none;stroke-width:0.1"
         id="path52"
         inkscape:connector-curvature="0" /><path
         d="m 193.701,60.0719 v 7.2972 c 0,2.0641 -1.104,3.12 -2.88,3.12 -1.776,0 -2.953,-1.0801 -2.953,-3.12 v -7.2972 h -1.727 v 17.0902 h 1.727 v -6.5769 c 0.865,0.9847 1.992,1.441 3.313,1.441 2.664,0 4.249,-1.7051 4.249,-4.3692 v -7.5851 h -1.729"
         style="fill:#ffffff;fill-opacity:1;fill-rule:nonzero;stroke:none;stroke-width:0.1"
         id="path54"
         inkscape:connector-curvature="0" /><path
         d="M 3.45547,36.0719 V 53.1621 H 5.27969 V 36.0719 H 3.45547"
         style="fill:#ffffff;fill-opacity:1;fill-rule:nonzero;stroke:none;stroke-width:0.1"
         id="path56"
         inkscape:connector-curvature="0" /><path
         d="m 17.4723,36.0719 v 7.273 c 0,2.0883 -1.1282,3.1442 -2.9043,3.1442 -1.7758,0 -2.9285,-1.0801 -2.9285,-3.1442 v -7.273 H 9.91172 V 47.882 h 1.72778 v -1.2968 c 0.8406,0.9609 1.9921,1.441 3.3125,1.441 1.2722,0 2.3043,-0.3852 3.0246,-1.1043 0.8398,-0.8168 1.2242,-1.9207 1.2242,-3.2887 v -7.5613 h -1.7285"
         style="fill:#ffffff;fill-opacity:1;fill-rule:nonzero;stroke:none;stroke-width:0.1"
         id="path58"
         inkscape:connector-curvature="0" /><path
         d="M 25.5117,46.4891 V 36.0719 h -1.7281 v 10.4172 h -1.5121 v 1.3199 h 1.5121 v 2.2332 c 0,1.7519 0.984,3.168 3,3.168 h 1.248 v -1.4883 h -0.9359 c -1.1039,0 -1.584,-0.6481 -1.584,-1.7278 V 47.809 h 2.5199 v -1.3199 h -2.5199"
         style="fill:#ffffff;fill-opacity:1;fill-rule:nonzero;stroke:none;stroke-width:0.1"
         id="path60"
         inkscape:connector-curvature="0" /><path
         d="m 37.5355,45.625 c -0.6476,0.648 -1.1277,0.8641 -2.0398,0.8641 -1.7285,0 -2.8324,-1.368 -2.8324,-3.168 V 36.0719 H 30.9352 V 47.882 h 1.7281 v -1.441 c 0.648,0.984 1.9441,1.5852 3.3125,1.5852 1.1277,0 1.9922,-0.2653 2.8316,-1.1043 L 37.5355,45.625"
         style="fill:#ffffff;fill-opacity:1;fill-rule:nonzero;stroke:none;stroke-width:0.1"
         id="path62"
         inkscape:connector-curvature="0" /><path
         d="m 47.4957,41.5211 h -3.3125 c -1.7762,0 -2.6402,-0.7199 -2.6402,-2.0879 0,-1.3684 0.8398,-2.016 2.7125,-2.016 1.0078,0 1.8961,0.0707 2.6398,0.7918 0.4078,0.3832 0.6004,1.0558 0.6004,2.0402 z m 0,-5.4492 V 37.2 c -0.9605,-0.9602 -1.8242,-1.2719 -3.409,-1.2719 -1.6316,0 -2.5918,0.3117 -3.3355,1.0801 -0.5766,0.577 -0.8883,1.4648 -0.8883,2.4008 0,2.064 1.4398,3.4082 4.0805,3.4082 h 3.5523 v 1.1277 c 0,1.7289 -0.8644,2.5922 -3.0246,2.5922 -1.5121,0 -2.2801,-0.3601 -2.9762,-1.3441 l -1.1761,1.08 c 1.0562,1.368 2.2566,1.7532 4.1761,1.7532 3.1688,0 4.7285,-1.3692 4.7285,-3.9371 v -8.0172 h -1.7277"
         style="fill:#ffffff;fill-opacity:1;fill-rule:nonzero;stroke:none;stroke-width:0.1"
         id="path64"
         inkscape:connector-curvature="0" /><path
         d="m 57.1426,35.9281 c -1.9922,0 -3.5524,0.4559 -4.8481,1.7051 l 1.152,1.152 c 0.9359,-0.9852 2.2082,-1.368 3.6723,-1.368 1.9441,0 3.1445,0.6949 3.1445,2.0879 0,1.032 -0.6,1.6078 -1.9684,1.7281 l -1.9441,0.168 c -2.3043,0.1918 -3.5285,1.2238 -3.5285,3.1679 0,2.1598 1.8242,3.4571 4.3441,3.4571 1.6805,0 3.1926,-0.409 4.2484,-1.2723 L 60.2871,45.625 c -0.8402,0.648 -1.9203,0.9359 -3.1445,0.9359 -1.7281,0 -2.6403,-0.7437 -2.6403,-1.9437 0,-1.0082 0.5762,-1.6082 2.0645,-1.7281 l 1.8961,-0.168 c 2.0641,-0.1922 3.4805,-0.984 3.4805,-3.1922 0,-2.2797 -1.9446,-3.6008 -4.8008,-3.6008"
         style="fill:#ffffff;fill-opacity:1;fill-rule:nonzero;stroke:none;stroke-width:0.1"
         id="path66"
         inkscape:connector-curvature="0" /><path
         d="m 68.3988,36.0719 c -2.0164,0 -3.0242,1.416 -3.0242,3.1691 v 7.2481 h -1.4883 v 1.3199 h 1.4883 v 3.6969 h 1.7277 V 47.809 h 2.5207 v -1.3199 h -2.5207 v -7.2 c 0,-1.0801 0.504,-1.7282 1.6086,-1.7282 h 0.9121 v -1.489 h -1.2242"
         style="fill:#ffffff;fill-opacity:1;fill-rule:nonzero;stroke:none;stroke-width:0.1"
         id="path68"
         inkscape:connector-curvature="0" /><path
         d="m 79.6547,45.625 c -0.6481,0.648 -1.1277,0.8641 -2.0399,0.8641 -1.7285,0 -2.8328,-1.368 -2.8328,-3.168 V 36.0719 H 73.0543 V 47.882 h 1.7277 v -1.441 c 0.6489,0.984 1.9446,1.5852 3.3125,1.5852 1.1282,0 1.9922,-0.2653 2.8325,-1.1043 L 79.6547,45.625"
         style="fill:#ffffff;fill-opacity:1;fill-rule:nonzero;stroke:none;stroke-width:0.1"
         id="path70"
         inkscape:connector-curvature="0" /><path
         d="m 90.6227,36.0719 v 1.3211 c -0.8407,-0.961 -2.0164,-1.4649 -3.3368,-1.4649 -1.2718,0 -2.3281,0.3848 -3.048,1.1039 -0.8399,0.8168 -1.2004,1.945 -1.2004,3.3129 v 7.5371 h 1.7285 v -7.273 c 0,-2.0879 1.1039,-3.1442 2.8801,-3.1442 1.7762,0 2.9519,1.0801 2.9519,3.1442 v 7.273 h 1.7286 V 36.0719 h -1.7039"
         style="fill:#ffffff;fill-opacity:1;fill-rule:nonzero;stroke:none;stroke-width:0.1"
         id="path72"
         inkscape:connector-curvature="0" /><path
         d="m 101.229,35.9281 c -2.9755,0 -5.2317,2.0168 -5.2317,6.0489 0,4.032 2.2562,6.0492 5.2317,6.0492 1.633,0 2.665,-0.4332 3.889,-1.7532 l -1.176,-1.1039 c -0.888,0.9848 -1.585,1.32 -2.713,1.32 -1.152,0 -2.1118,-0.4559 -2.7356,-1.3442 C 97.941,44.377 97.725,43.4648 97.725,41.977 c 0,-1.4879 0.216,-2.4 0.7684,-3.168 0.6238,-0.8879 1.5836,-1.3442 2.7356,-1.3442 1.128,0 1.825,0.359 2.713,1.3442 l 1.176,-1.1289 c -1.224,-1.3192 -2.256,-1.752 -3.889,-1.752"
         style="fill:#ffffff;fill-opacity:1;fill-rule:nonzero;stroke:none;stroke-width:0.1"
         id="path74"
         inkscape:connector-curvature="0" /><path
         d="m 111.717,36.0719 c -2.016,0 -3.024,1.416 -3.024,3.1691 v 7.2481 h -1.488 v 1.3199 h 1.488 v 3.6969 h 1.728 V 47.809 h 2.52 v -1.3199 h -2.52 v -7.2 c 0,-1.0801 0.504,-1.7282 1.608,-1.7282 h 0.912 v -1.489 h -1.224"
         style="fill:#ffffff;fill-opacity:1;fill-rule:nonzero;stroke:none;stroke-width:0.1"
         id="path76"
         inkscape:connector-curvature="0" /><path
         d="m 123.837,36.0719 v 1.3211 c -0.84,-0.961 -2.016,-1.4649 -3.336,-1.4649 -1.272,0 -2.328,0.3848 -3.048,1.1039 -0.84,0.8168 -1.201,1.945 -1.201,3.3129 v 7.5371 h 1.729 v -7.273 c 0,-2.0879 1.104,-3.1442 2.88,-3.1442 1.776,0 2.952,1.0801 2.952,3.1442 v 7.273 h 1.729 V 36.0719 h -1.705"
         style="fill:#ffffff;fill-opacity:1;fill-rule:nonzero;stroke:none;stroke-width:0.1"
         id="path78"
         inkscape:connector-curvature="0" /><path
         d="m 136.462,45.625 c -0.649,0.648 -1.129,0.8641 -2.041,0.8641 -1.729,0 -2.832,-1.368 -2.832,-3.168 V 36.0719 H 129.86 V 47.882 h 1.729 v -1.441 c 0.648,0.984 1.944,1.5852 3.312,1.5852 1.128,0 1.993,-0.2653 2.832,-1.1043 l -1.271,-1.2969"
         style="fill:#ffffff;fill-opacity:1;fill-rule:nonzero;stroke:none;stroke-width:0.1"
         id="path80"
         inkscape:connector-curvature="0" /><path
         d="m 146.181,44.7852 c -0.456,1.0796 -1.512,1.7757 -2.76,1.7757 -1.248,0 -2.305,-0.6961 -2.761,-1.7757 -0.264,-0.6481 -0.311,-1.0082 -0.36,-1.968 h 6.241 c -0.048,0.9598 -0.097,1.3199 -0.36,1.968 z M 140.3,41.5211 c 0,-2.5922 1.224,-4.0801 3.48,-4.0801 1.369,0 2.16,0.4078 3.097,1.3442 l 1.177,-1.0321 c -1.202,-1.2011 -2.305,-1.825 -4.322,-1.825 -3.12,0 -5.16,1.8719 -5.16,6.0489 0,3.816 1.849,6.0492 4.849,6.0492 3.048,0 4.848,-2.209 4.848,-5.7133 V 41.5211 H 140.3"
         style="fill:#ffffff;fill-opacity:1;fill-rule:nonzero;stroke:none;stroke-width:0.1"
         id="path82"
         inkscape:connector-curvature="0" /><path
         d="M 160.028,46.4891 V 36.0719 H 158.3 v 10.4172 h -1.512 v 1.3199 h 1.512 v 2.2332 c 0,1.7519 0.984,3.168 3,3.168 h 1.248 v -1.4883 h -0.936 c -1.104,0 -1.584,-0.6481 -1.584,-1.7278 V 47.809 h 2.52 v -1.3199 h -2.52"
         style="fill:#ffffff;fill-opacity:1;fill-rule:nonzero;stroke:none;stroke-width:0.1"
         id="path84"
         inkscape:connector-curvature="0" /><path
         d="m 171.429,45.625 c -0.553,0.552 -1.321,0.8641 -2.16,0.8641 -0.84,0 -1.584,-0.3121 -2.137,-0.8641 -0.863,-0.8641 -0.96,-2.3281 -0.96,-3.648 0,-1.32 0.097,-2.784 0.96,-3.6481 0.553,-0.5519 1.297,-0.8641 2.137,-0.8641 0.839,0 1.607,0.3122 2.16,0.8641 0.863,0.8641 0.935,2.3281 0.935,3.6481 0,1.3199 -0.072,2.7839 -0.935,3.648 z m 1.223,-8.352 c -0.815,-0.816 -1.944,-1.3449 -3.383,-1.3449 -1.441,0 -2.569,0.5289 -3.385,1.3449 -1.199,1.2239 -1.44,2.8801 -1.44,4.704 0,1.8242 0.241,3.48 1.44,4.7039 0.816,0.816 1.944,1.3453 3.385,1.3453 1.439,0 2.568,-0.5293 3.383,-1.3453 1.2,-1.2239 1.441,-2.8797 1.441,-4.7039 0,-1.8239 -0.241,-3.4801 -1.441,-4.704"
         style="fill:#ffffff;fill-opacity:1;fill-rule:nonzero;stroke:none;stroke-width:0.1"
         id="path86"
         inkscape:connector-curvature="0" /><path
         d="m 184.388,45.625 c -0.648,0.648 -1.127,0.8641 -2.039,0.8641 -1.729,0 -2.833,-1.368 -2.833,-3.168 v -7.2492 h -1.728 V 47.882 h 1.728 v -1.441 c 0.648,0.984 1.944,1.5852 3.312,1.5852 1.128,0 1.992,-0.2653 2.832,-1.1043 l -1.272,-1.2969"
         style="fill:#ffffff;fill-opacity:1;fill-rule:nonzero;stroke:none;stroke-width:0.1"
         id="path88"
         inkscape:connector-curvature="0" /><path
         d="m 199.075,50.5461 -3.217,-9.025 h 6.385 z m 5.065,-14.4742 -1.369,3.8652 h -7.464 l -1.369,-3.8652 h -1.943 l 6.288,17.0902 h 1.536 l 6.265,-17.0902 h -1.944"
         style="fill:#ffffff;fill-opacity:1;fill-rule:nonzero;stroke:none;stroke-width:0.1"
         id="path90"
         inkscape:connector-curvature="0" /><path
         d="m 215.995,36.0719 v 1.3211 c -0.84,-0.961 -2.016,-1.4649 -3.336,-1.4649 -1.271,0 -2.328,0.3848 -3.049,1.1039 -0.84,0.8168 -1.199,1.945 -1.199,3.3129 v 7.5371 h 1.729 v -7.273 c 0,-2.0879 1.103,-3.1442 2.879,-3.1442 1.777,0 2.953,1.0801 2.953,3.1442 v 7.273 H 217.7 V 36.0719 h -1.705"
         style="fill:#ffffff;fill-opacity:1;fill-rule:nonzero;stroke:none;stroke-width:0.1"
         id="path92"
         inkscape:connector-curvature="0" /><path
         d="m 225.739,35.9281 c -1.992,0 -3.553,0.4559 -4.848,1.7051 l 1.151,1.152 c 0.937,-0.9852 2.209,-1.368 3.673,-1.368 1.944,0 3.144,0.6949 3.144,2.0879 0,1.032 -0.6,1.6078 -1.967,1.7281 l -1.946,0.168 c -2.303,0.1918 -3.527,1.2238 -3.527,3.1679 0,2.1598 1.824,3.4571 4.344,3.4571 1.679,0 3.192,-0.409 4.248,-1.2723 l -1.127,-1.1289 c -0.841,0.648 -1.921,0.9359 -3.145,0.9359 -1.728,0 -2.64,-0.7437 -2.64,-1.9437 0,-1.0082 0.576,-1.6082 2.064,-1.7281 l 1.897,-0.168 c 2.063,-0.1922 3.48,-0.984 3.48,-3.1922 0,-2.2797 -1.945,-3.6008 -4.801,-3.6008"
         style="fill:#ffffff;fill-opacity:1;fill-rule:nonzero;stroke:none;stroke-width:0.1"
         id="path94"
         inkscape:connector-curvature="0" /><path
         d="m 236.995,36.0719 c -2.016,0 -3.024,1.416 -3.024,3.1691 v 7.2481 h -1.489 v 1.3199 h 1.489 v 3.6969 h 1.727 V 47.809 h 2.522 v -1.3199 h -2.522 v -7.2 c 0,-1.0801 0.504,-1.7282 1.61,-1.7282 h 0.912 v -1.489 h -1.225"
         style="fill:#ffffff;fill-opacity:1;fill-rule:nonzero;stroke:none;stroke-width:0.1"
         id="path96"
         inkscape:connector-curvature="0" /><path
         d="m 248.251,45.625 c -0.649,0.648 -1.128,0.8641 -2.04,0.8641 -1.728,0 -2.833,-1.368 -2.833,-3.168 V 36.0719 H 241.65 V 47.882 h 1.728 v -1.441 c 0.648,0.984 1.945,1.5852 3.312,1.5852 1.129,0 1.993,-0.2653 2.832,-1.1043 l -1.271,-1.2969"
         style="fill:#ffffff;fill-opacity:1;fill-rule:nonzero;stroke:none;stroke-width:0.1"
         id="path98"
         inkscape:connector-curvature="0" /><path
         d="m 258.211,41.5211 h -3.313 c -1.776,0 -2.639,-0.7199 -2.639,-2.0879 0,-1.3684 0.84,-2.016 2.712,-2.016 1.008,0 1.895,0.0707 2.639,0.7918 0.409,0.3832 0.601,1.0558 0.601,2.0402 z m 0,-5.4492 V 37.2 c -0.96,-0.9602 -1.824,-1.2719 -3.409,-1.2719 -1.631,0 -2.592,0.3117 -3.336,1.0801 -0.576,0.577 -0.888,1.4648 -0.888,2.4008 0,2.064 1.441,3.4082 4.081,3.4082 h 3.552 v 1.1277 c 0,1.7289 -0.864,2.5922 -3.025,2.5922 -1.511,0 -2.28,-0.3601 -2.976,-1.3441 l -1.176,1.08 c 1.057,1.368 2.256,1.7532 4.176,1.7532 3.169,0 4.729,-1.3692 4.729,-3.9371 v -8.0172 h -1.728"
         style="fill:#ffffff;fill-opacity:1;fill-rule:nonzero;stroke:none;stroke-width:0.1"
         id="path100"
         inkscape:connector-curvature="0" /><path
         d="m 267.09,36.0719 c -2.064,0 -3,1.3453 -3,3.1441 v 13.9461 h 1.727 v -13.873 c 0,-1.1532 0.385,-1.7282 1.584,-1.7282 h 0.937 v -1.489 h -1.248"
         style="fill:#ffffff;fill-opacity:1;fill-rule:nonzero;stroke:none;stroke-width:0.1"
         id="path102"
         inkscape:connector-curvature="0" /><path
         d="M 271.266,36.0719 V 47.882 h 1.727 V 36.0719 Z m 0.864,15.0742 c -0.649,0 -1.176,0.5277 -1.176,1.1758 0,0.648 0.527,1.1761 1.176,1.1761 0.648,0 1.199,-0.5281 1.199,-1.1761 0,-0.6481 -0.551,-1.1758 -1.199,-1.1758"
         style="fill:#ffffff;fill-opacity:1;fill-rule:nonzero;stroke:none;stroke-width:0.1"
         id="path104"
         inkscape:connector-curvature="0" /><path
         d="m 284.034,41.5211 h -3.312 c -1.776,0 -2.641,-0.7199 -2.641,-2.0879 0,-1.3684 0.84,-2.016 2.713,-2.016 1.008,0 1.896,0.0707 2.641,0.7918 0.408,0.3832 0.599,1.0558 0.599,2.0402 z m 0,-5.4492 V 37.2 c -0.961,-0.9602 -1.824,-1.2719 -3.408,-1.2719 -1.633,0 -2.592,0.3117 -3.336,1.0801 -0.576,0.577 -0.889,1.4648 -0.889,2.4008 0,2.064 1.44,3.4082 4.08,3.4082 h 3.553 v 1.1277 c 0,1.7289 -0.863,2.5922 -3.025,2.5922 -1.512,0 -2.28,-0.3601 -2.975,-1.3441 l -1.178,1.08 c 1.057,1.368 2.258,1.7532 4.178,1.7532 3.168,0 4.729,-1.3692 4.729,-3.9371 v -8.0172 h -1.729"
         style="fill:#ffffff;fill-opacity:1;fill-rule:nonzero;stroke:none;stroke-width:0.1"
         id="path106"
         inkscape:connector-curvature="0" /><path
         d="M 7.20117,16.852 4.92383,10.4609 H 9.44531 Z M 10.7883,6.60195 9.81914,9.33906 H 4.53281 L 3.56406,6.60195 H 2.18711 L 6.64063,18.7051 H 7.72852 L 12.1648,6.60195 h -1.3765"
         style="fill:#ffffff;fill-opacity:1;fill-rule:nonzero;stroke:none;stroke-width:0.1"
         id="path108"
         inkscape:connector-curvature="0" /><path
         d="m 19.832,6.60195 v 5.15115 c 0,1.4789 -0.7988,2.227 -2.0566,2.227 -1.2578,0 -2.0738,-0.7653 -2.0738,-2.227 V 6.60195 H 14.4773 V 14.966 h 1.2243 v -0.918 c 0.5949,0.679 1.4105,1.02 2.3457,1.02 0.9007,0 1.632,-0.2719 2.1418,-0.7828 0.5953,-0.577 0.8672,-1.3602 0.8672,-2.3282 V 6.60195 H 19.832"
         style="fill:#ffffff;fill-opacity:1;fill-rule:nonzero;stroke:none;stroke-width:0.1"
         id="path110"
         inkscape:connector-curvature="0" /><path
         d="m 33.1086,16.852 -2.2773,-6.3911 h 4.521 z M 36.6953,6.60195 35.7266,9.33906 H 30.4398 L 29.4711,6.60195 h -1.377 l 4.4536,12.10315 h 1.0878 L 38.0723,6.60195 h -1.377"
         style="fill:#ffffff;fill-opacity:1;fill-rule:nonzero;stroke:none;stroke-width:0.1"
         id="path112"
         inkscape:connector-curvature="0" /><path
         d="M 45.6715,6.60195 V 7.53711 C 45.0762,6.85703 44.2438,6.5 43.3086,6.5 42.4078,6.5 41.6598,6.77188 41.15,7.28203 40.5547,7.86016 40.2996,8.65898 40.2996,9.62813 V 14.966 h 1.2242 V 9.81484 c 0,-1.4789 0.7821,-2.22695 2.0399,-2.22695 1.2578,0 2.0906,0.76524 2.0906,2.22695 V 14.966 h 1.2242 V 6.60195 h -1.207"
         style="fill:#ffffff;fill-opacity:1;fill-rule:nonzero;stroke:none;stroke-width:0.1"
         id="path114"
         inkscape:connector-curvature="0" /><path
         d="m 53.1516,6.5 c -1.411,0 -2.5161,0.32305 -3.4336,1.20703 l 0.8156,0.81602 c 0.6633,-0.69688 1.5641,-0.96914 2.6008,-0.96914 1.3769,0 2.2269,0.49297 2.2269,1.47929 0,0.73086 -0.4254,1.1387 -1.3941,1.2238 l -1.377,0.1192 c -1.6316,0.1359 -2.4984,0.8668 -2.4984,2.2437 0,1.5301 1.2922,2.4481 3.0766,2.4481 1.1902,0 2.2609,-0.2891 3.0089,-0.9008 l -0.7988,-0.8 c -0.5953,0.459 -1.3605,0.6629 -2.2269,0.6629 -1.2239,0 -1.87,-0.5262 -1.87,-1.3762 0,-0.7141 0.4079,-1.1391 1.4622,-1.2238 l 1.3425,-0.1192 c 1.4621,-0.1359 2.4649,-0.6968 2.4649,-2.2609 0,-1.61484 -1.377,-2.55 -3.3996,-2.55"
         style="fill:#ffffff;fill-opacity:1;fill-rule:nonzero;stroke:none;stroke-width:0.1"
         id="path116"
         inkscape:connector-curvature="0" /><path
         d="m 61.7016,6.60195 c -1.4278,0 -2.1414,1.00313 -2.1414,2.24414 v 5.13401 h -1.0539 v 0.934 h 1.0539 v 2.6179 h 1.2234 v -2.6179 h 1.7852 v -0.934 H 60.7836 V 8.88008 c 0,-0.76524 0.357,-1.22422 1.1391,-1.22422 h 0.6461 V 6.60195 h -0.8672"
         style="fill:#ffffff;fill-opacity:1;fill-rule:nonzero;stroke:none;stroke-width:0.1"
         id="path118"
         inkscape:connector-curvature="0" /><path
         d="m 70.2523,13.3672 c -0.4589,0.459 -0.7992,0.6129 -1.4453,0.6129 -1.2234,0 -2.005,-0.9699 -2.005,-2.2442 V 6.60195 H 65.5777 V 14.966 h 1.2243 v -1.0211 c 0.4585,0.6973 1.3761,1.1231 2.3457,1.1231 0.7988,0 1.4105,-0.1871 2.0054,-0.7828 l -0.9008,-0.918"
         style="fill:#ffffff;fill-opacity:1;fill-rule:nonzero;stroke:none;stroke-width:0.1"
         id="path120"
         inkscape:connector-curvature="0" /><path
         d="m 77.8852,10.4609 h -2.3457 c -1.2579,0 -1.87,-0.50973 -1.87,-1.47887 0,-0.96914 0.595,-1.42812 1.9207,-1.42812 0.7141,0 1.343,0.05117 1.8703,0.56093 0.2883,0.27227 0.4247,0.74805 0.4247,1.44532 z m 0,-3.85895 V 7.40117 C 77.2051,6.72109 76.5934,6.5 75.4711,6.5 c -1.1559,0 -1.8356,0.22109 -2.3621,0.76484 -0.4082,0.40821 -0.6293,1.03711 -0.6293,1.7 0,1.46216 1.0199,2.41406 2.8898,2.41406 h 2.5157 v 0.7981 c 0,1.225 -0.6118,1.8359 -2.1418,1.8359 -1.0711,0 -1.6149,-0.2547 -2.1079,-0.9508 l -0.8328,0.7641 c 0.7481,0.9699 1.5977,1.2418 2.9575,1.2418 2.2441,0 3.3488,-0.97 3.3488,-2.7891 V 6.60195 h -1.2238"
         style="fill:#ffffff;fill-opacity:1;fill-rule:nonzero;stroke:none;stroke-width:0.1"
         id="path122"
         inkscape:connector-curvature="0" /><path
         d="m 84.7535,6.60195 c -1.4621,0 -2.125,0.95196 -2.125,2.22696 v 9.87619 h 1.2238 V 8.88008 c 0,-0.81602 0.2723,-1.22422 1.1223,-1.22422 h 0.6625 V 6.60195 h -0.8836"
         style="fill:#ffffff;fill-opacity:1;fill-rule:nonzero;stroke:none;stroke-width:0.1"
         id="path124"
         inkscape:connector-curvature="0" /><path
         d="M 88.2891,6.60195 V 14.966 h 1.2242 V 6.60195 Z M 88.9008,17.277 c -0.459,0 -0.8324,0.3742 -0.8324,0.8332 0,0.4589 0.3734,0.8328 0.8324,0.8328 0.459,0 0.8504,-0.3739 0.8504,-0.8328 0,-0.459 -0.3914,-0.8332 -0.8504,-0.8332"
         style="fill:#ffffff;fill-opacity:1;fill-rule:nonzero;stroke:none;stroke-width:0.1"
         id="path126"
         inkscape:connector-curvature="0" /><path
         d="m 97.9105,10.4609 h -2.3457 c -1.2578,0 -1.8699,-0.50973 -1.8699,-1.47887 0,-0.96914 0.5949,-1.42812 1.9207,-1.42812 0.7141,0 1.343,0.05117 1.8703,0.56093 0.2883,0.27227 0.4246,0.74805 0.4246,1.44532 z m 0,-3.85895 V 7.40117 C 97.2305,6.72109 96.6188,6.5 95.4965,6.5 c -1.1559,0 -1.8356,0.22109 -2.3621,0.76484 -0.4082,0.40821 -0.6293,1.03711 -0.6293,1.7 0,1.46216 1.0199,2.41406 2.8898,2.41406 h 2.5156 v 0.7981 c 0,1.225 -0.6117,1.8359 -2.1417,1.8359 -1.0711,0 -1.6149,-0.2547 -2.1079,-0.9508 l -0.8328,0.7641 c 0.7481,0.9699 1.5977,1.2418 2.9574,1.2418 2.2442,0 3.3489,-0.97 3.3489,-2.7891 V 6.60195 h -1.2239"
         style="fill:#ffffff;fill-opacity:1;fill-rule:nonzero;stroke:none;stroke-width:0.1"
         id="path128"
         inkscape:connector-curvature="0" /><path
         d="m 108.042,6.60195 v 5.15115 c 0,1.4789 -0.798,2.227 -2.056,2.227 -1.258,0 -2.074,-0.7653 -2.074,-2.227 V 6.60195 h -1.224 V 14.966 h 1.224 v -0.918 c 0.595,0.679 1.411,1.02 2.346,1.02 0.901,0 1.632,-0.2719 2.141,-0.7828 0.596,-0.577 0.868,-1.3602 0.868,-2.3282 V 6.60195 h -1.225"
         style="fill:#ffffff;fill-opacity:1;fill-rule:nonzero;stroke:none;stroke-width:0.1"
         id="path130"
         inkscape:connector-curvature="0" /><path
         d="M 124.821,7.89414 C 124.005,7.01016 122.883,6.5 121.625,6.5 c -1.19,0 -2.278,0.44219 -3.094,1.2582 -1.138,1.13868 -1.138,2.3289 -1.138,4.8957 0,2.566 0,3.7563 1.138,4.8949 0.816,0.816 1.887,1.2582 3.094,1.2582 1.598,0 2.55,-0.5781 3.621,-1.6488 l -0.867,-0.8672 c -0.85,0.85 -1.513,1.3602 -2.754,1.3602 -0.799,0 -1.564,-0.3231 -2.091,-0.8672 -0.764,-0.782 -0.85,-1.5981 -0.85,-4.1301 0,-2.5328 0.086,-3.36601 0.85,-4.14804 0.527,-0.54375 1.292,-0.85 2.091,-0.85 0.884,0 1.717,0.35703 2.278,1.03711 0.493,0.57812 0.663,1.29219 0.663,2.21013 v 0.9008 h -2.941 v 1.1391 h 4.232 v -1.9211 c 0,-1.39377 -0.288,-2.32893 -1.036,-3.12776"
         style="fill:#ffffff;fill-opacity:1;fill-rule:nonzero;stroke:none;stroke-width:0.1"
         id="path132"
         inkscape:connector-curvature="0" /><path
         d="m 133.678,13.3672 c -0.391,0.391 -0.935,0.6129 -1.531,0.6129 -0.593,0 -1.121,-0.2219 -1.511,-0.6129 -0.613,-0.6113 -0.68,-1.6481 -0.68,-2.5832 0,-0.93517 0.067,-1.97189 0.68,-2.584 0.39,-0.39102 0.918,-0.61211 1.511,-0.61211 0.596,0 1.14,0.22109 1.531,0.61211 0.612,0.61211 0.663,1.64883 0.663,2.584 0,0.9351 -0.051,1.9719 -0.663,2.5832 z m 0.867,-5.91525 C 133.967,6.87422 133.168,6.5 132.147,6.5 c -1.019,0 -1.818,0.37422 -2.396,0.95195 -0.85,0.86719 -1.02,2.04024 -1.02,3.33205 0,1.2922 0.17,2.4652 1.02,3.3308 0.578,0.5793 1.377,0.9532 2.396,0.9532 1.021,0 1.82,-0.3739 2.398,-0.9532 0.85,-0.8656 1.02,-2.0386 1.02,-3.3308 0,-1.29181 -0.17,-2.46486 -1.02,-3.33205"
         style="fill:#ffffff;fill-opacity:1;fill-rule:nonzero;stroke:none;stroke-width:0.1"
         id="path134"
         inkscape:connector-curvature="0" /><path
         d="m 141.395,6.60195 h -1.087 l -3.059,8.36405 h 1.325 l 2.278,-6.71483 2.295,6.71483 h 1.326 l -3.078,-8.36405"
         style="fill:#ffffff;fill-opacity:1;fill-rule:nonzero;stroke:none;stroke-width:0.1"
         id="path136"
         inkscape:connector-curvature="0" /><path
         d="m 151.527,12.773 c -0.323,0.7649 -1.071,1.2571 -1.955,1.2571 -0.884,0 -1.632,-0.4922 -1.954,-1.2571 -0.187,-0.4589 -0.222,-0.714 -0.256,-1.3941 h 4.42 c -0.034,0.6801 -0.068,0.9352 -0.255,1.3941 z m -4.165,-2.3121 c 0,-1.8359 0.867,-2.88981 2.465,-2.88981 0.969,0 1.53,0.28907 2.193,0.95196 l 0.832,-0.73086 C 152.003,6.94219 151.222,6.5 149.794,6.5 c -2.211,0 -3.655,1.32617 -3.655,4.284 0,2.7031 1.309,4.284 3.433,4.284 2.159,0 3.434,-1.5641 3.434,-4.0461 v -0.561 h -5.644"
         style="fill:#ffffff;fill-opacity:1;fill-rule:nonzero;stroke:none;stroke-width:0.1"
         id="path138"
         inkscape:connector-curvature="0" /><path
         d="m 160.86,13.3672 c -0.459,0.459 -0.799,0.6129 -1.445,0.6129 -1.224,0 -2.006,-0.9699 -2.006,-2.2442 V 6.60195 h -1.223 V 14.966 h 1.223 v -1.0211 c 0.459,0.6973 1.377,1.1231 2.346,1.1231 0.799,0 1.411,-0.1871 2.006,-0.7828 l -0.901,-0.918"
         style="fill:#ffffff;fill-opacity:1;fill-rule:nonzero;stroke:none;stroke-width:0.1"
         id="path140"
         inkscape:connector-curvature="0" /><path
         d="m 169.274,6.60195 v 5.15115 c 0,1.4789 -0.798,2.227 -2.056,2.227 -1.258,0 -2.073,-0.7653 -2.073,-2.227 V 6.60195 h -1.224 V 14.966 h 1.224 v -0.918 c 0.594,0.679 1.411,1.02 2.345,1.02 0.902,0 1.632,-0.2719 2.142,-0.7828 0.595,-0.577 0.867,-1.3602 0.867,-2.3282 V 6.60195 h -1.225"
         style="fill:#ffffff;fill-opacity:1;fill-rule:nonzero;stroke:none;stroke-width:0.1"
         id="path142"
         inkscape:connector-curvature="0" /><path
         d="m 184.795,6.60195 v 5.15115 c 0,1.4789 -0.8,2.227 -2.058,2.227 -1.222,0 -2.09,-0.7653 -2.09,-2.091 V 6.60195 h -1.224 v 5.15115 c 0,1.4789 -0.799,2.227 -2.057,2.227 -1.258,0 -2.09,-0.7653 -2.09,-2.227 V 6.60195 h -1.224 V 14.966 h 1.224 v -0.918 c 0.594,0.679 1.428,1.02 2.363,1.02 1.155,0 2.056,-0.477 2.566,-1.3942 0.646,0.9172 1.581,1.3942 2.754,1.3942 0.901,0 1.649,-0.2891 2.159,-0.7828 0.594,-0.577 0.901,-1.3602 0.901,-2.3282 V 6.60195 h -1.224"
         style="fill:#ffffff;fill-opacity:1;fill-rule:nonzero;stroke:none;stroke-width:0.1"
         id="path144"
         inkscape:connector-curvature="0" /><path
         d="m 194.503,12.773 c -0.324,0.7649 -1.071,1.2571 -1.955,1.2571 -0.885,0 -1.633,-0.4922 -1.955,-1.2571 -0.188,-0.4589 -0.221,-0.714 -0.255,-1.3941 h 4.419 c -0.033,0.6801 -0.068,0.9352 -0.254,1.3941 z m -4.165,-2.3121 c 0,-1.8359 0.866,-2.88981 2.464,-2.88981 0.969,0 1.531,0.28907 2.193,0.95196 l 0.833,-0.73086 C 194.977,6.94219 194.196,6.5 192.769,6.5 c -2.21,0 -3.655,1.32617 -3.655,4.284 0,2.7031 1.309,4.284 3.434,4.284 2.158,0 3.433,-1.5641 3.433,-4.0461 v -0.561 h -5.643"
         style="fill:#ffffff;fill-opacity:1;fill-rule:nonzero;stroke:none;stroke-width:0.1"
         id="path146"
         inkscape:connector-curvature="0" /><path
         d="m 204.515,6.60195 v 5.15115 c 0,1.4789 -0.799,2.227 -2.057,2.227 -1.258,0 -2.073,-0.7653 -2.073,-2.227 V 6.60195 h -1.224 V 14.966 h 1.224 v -0.918 c 0.594,0.679 1.411,1.02 2.345,1.02 0.902,0 1.632,-0.2719 2.142,-0.7828 0.596,-0.577 0.867,-1.3602 0.867,-2.3282 V 6.60195 h -1.224"
         style="fill:#ffffff;fill-opacity:1;fill-rule:nonzero;stroke:none;stroke-width:0.1"
         id="path148"
         inkscape:connector-curvature="0" /><path
         d="m 211.638,6.60195 c -1.428,0 -2.141,1.00313 -2.141,2.24414 v 5.13401 h -1.055 v 0.934 h 1.055 v 2.6179 h 1.223 v -2.6179 h 1.785 v -0.934 H 210.72 V 8.88008 c 0,-0.76524 0.357,-1.22422 1.139,-1.22422 h 0.646 V 6.60195 h -0.867"
         style="fill:#ffffff;fill-opacity:1;fill-rule:nonzero;stroke:none;stroke-width:0.1"
         id="path150"
         inkscape:connector-curvature="0" /><path
         d="M 220.546,6.60195 V 18.7051 h 1.291 V 6.60195 h -1.291"
         style="fill:#ffffff;fill-opacity:1;fill-rule:nonzero;stroke:none;stroke-width:0.1"
         id="path152"
         inkscape:connector-curvature="0" /><path
         d="m 231.052,6.60195 v 5.15115 c 0,1.4789 -0.799,2.227 -2.057,2.227 -1.258,0 -2.074,-0.7653 -2.074,-2.227 V 6.60195 h -1.225 V 14.966 h 1.225 v -0.918 c 0.595,0.679 1.41,1.02 2.346,1.02 0.9,0 1.631,-0.2719 2.141,-0.7828 0.595,-0.577 0.867,-1.3602 0.867,-2.3282 V 6.60195 h -1.223"
         style="fill:#ffffff;fill-opacity:1;fill-rule:nonzero;stroke:none;stroke-width:0.1"
         id="path154"
         inkscape:connector-curvature="0" /><path
         d="M 235.829,6.60195 V 14.966 h 1.224 V 6.60195 Z M 236.44,17.277 c -0.459,0 -0.832,0.3742 -0.832,0.8332 0,0.4589 0.373,0.8328 0.832,0.8328 0.459,0 0.85,-0.3739 0.85,-0.8328 0,-0.459 -0.391,-0.8332 -0.85,-0.8332"
         style="fill:#ffffff;fill-opacity:1;fill-rule:nonzero;stroke:none;stroke-width:0.1"
         id="path156"
         inkscape:connector-curvature="0" /><path
         d="m 243.053,6.60195 c -1.428,0 -2.142,1.00313 -2.142,2.24414 v 5.13401 h -1.055 v 0.934 h 1.055 v 2.6179 h 1.224 v -2.6179 h 1.785 v -0.934 h -1.785 V 8.88008 c 0,-0.76524 0.356,-1.22422 1.139,-1.22422 h 0.646 V 6.60195 h -0.867"
         style="fill:#ffffff;fill-opacity:1;fill-rule:nonzero;stroke:none;stroke-width:0.1"
         id="path158"
         inkscape:connector-curvature="0" /><path
         d="M 246.929,6.60195 V 14.966 h 1.224 V 6.60195 Z M 247.54,17.277 c -0.459,0 -0.832,0.3742 -0.832,0.8332 0,0.4589 0.373,0.8328 0.832,0.8328 0.459,0 0.851,-0.3739 0.851,-0.8328 0,-0.459 -0.392,-0.8332 -0.851,-0.8332"
         style="fill:#ffffff;fill-opacity:1;fill-rule:nonzero;stroke:none;stroke-width:0.1"
         id="path160"
         inkscape:connector-curvature="0" /><path
         d="m 256.55,10.4609 h -2.346 c -1.258,0 -1.869,-0.50973 -1.869,-1.47887 0,-0.96914 0.595,-1.42812 1.92,-1.42812 0.715,0 1.344,0.05117 1.871,0.56093 0.288,0.27227 0.424,0.74805 0.424,1.44532 z m 0,-3.85895 V 7.40117 C 255.87,6.72109 255.259,6.5 254.136,6.5 c -1.156,0 -1.835,0.22109 -2.362,0.76484 -0.408,0.40821 -0.629,1.03711 -0.629,1.7 0,1.46216 1.02,2.41406 2.889,2.41406 h 2.516 v 0.7981 c 0,1.225 -0.612,1.8359 -2.142,1.8359 -1.071,0 -1.614,-0.2547 -2.107,-0.9508 l -0.833,0.7641 c 0.748,0.9699 1.597,1.2418 2.957,1.2418 2.244,0 3.349,-0.97 3.349,-2.7891 V 6.60195 h -1.224"
         style="fill:#ffffff;fill-opacity:1;fill-rule:nonzero;stroke:none;stroke-width:0.1"
         id="path162"
         inkscape:connector-curvature="0" /><path
         d="m 263.673,6.60195 c -1.428,0 -2.142,1.00313 -2.142,2.24414 v 5.13401 h -1.053 v 0.934 h 1.053 v 2.6179 h 1.224 v -2.6179 h 1.785 v -0.934 h -1.785 V 8.88008 c 0,-0.76524 0.357,-1.22422 1.139,-1.22422 h 0.646 V 6.60195 h -0.867"
         style="fill:#ffffff;fill-opacity:1;fill-rule:nonzero;stroke:none;stroke-width:0.1"
         id="path164"
         inkscape:connector-curvature="0" /><path
         d="M 267.549,6.60195 V 14.966 h 1.223 V 6.60195 Z m 0.612,10.67505 c -0.459,0 -0.833,0.3742 -0.833,0.8332 0,0.4589 0.374,0.8328 0.833,0.8328 0.459,0 0.85,-0.3739 0.85,-0.8328 0,-0.459 -0.391,-0.8332 -0.85,-0.8332"
         style="fill:#ffffff;fill-opacity:1;fill-rule:nonzero;stroke:none;stroke-width:0.1"
         id="path166"
         inkscape:connector-curvature="0" /><path
         d="m 275.232,6.60195 h -1.087 l -3.06,8.36405 h 1.326 l 2.278,-6.71483 2.294,6.71483 h 1.327 l -3.078,-8.36405"
         style="fill:#ffffff;fill-opacity:1;fill-rule:nonzero;stroke:none;stroke-width:0.1"
         id="path168"
         inkscape:connector-curvature="0" /><path
         d="m 285.364,12.773 c -0.323,0.7649 -1.07,1.2571 -1.955,1.2571 -0.884,0 -1.632,-0.4922 -1.955,-1.2571 -0.186,-0.4589 -0.221,-0.714 -0.254,-1.3941 h 4.419 c -0.034,0.6801 -0.067,0.9352 -0.255,1.3941 z M 281.2,10.4609 c 0,-1.8359 0.866,-2.88981 2.465,-2.88981 0.969,0 1.529,0.28907 2.191,0.95196 L 286.69,7.79219 C 285.841,6.94219 285.058,6.5 283.63,6.5 c -2.209,0 -3.654,1.32617 -3.654,4.284 0,2.7031 1.308,4.284 3.433,4.284 2.158,0 3.434,-1.5641 3.434,-4.0461 v -0.561 H 281.2"
         style="fill:#ffffff;fill-opacity:1;fill-rule:nonzero;stroke:none;stroke-width:0.1"
         id="path170"
         inkscape:connector-curvature="0" /><path
         d="M 290.171,24.666 H 0 v 0.5 h 290.171 v -0.5"
         style="fill:#ffffff;fill-opacity:1;fill-rule:nonzero;stroke:none;stroke-width:0.1"
         id="path172"
         inkscape:connector-curvature="0" /><path
         d="M 290.171,0 H 0 V 0.5 H 290.171 V 0"
         style="fill:#ffffff;fill-opacity:1;fill-rule:nonzero;stroke:none;stroke-width:0.1"
         id="path174"
         inkscape:connector-curvature="0" /></g><path
       inkscape:connector-curvature="0"
       id="path178"
       style="fill:none;stroke:#ffffff;stroke-width:0.98998004;stroke-linecap:butt;stroke-linejoin:round;stroke-miterlimit:10;stroke-dasharray:none;stroke-opacity:1"
       d="M 286.265,100.017 253.482,85.6621 V 125.87 l 32.783,14.355 z" /><path
       inkscape:connector-curvature="0"
       id="path182"
       style="fill:none;stroke:#ffffff;stroke-width:0.98998004;stroke-linecap:butt;stroke-linejoin:round;stroke-miterlimit:10;stroke-dasharray:none;stroke-opacity:1"
       d="M 220.699,100.017 253.482,85.6621 V 125.87 l -32.783,14.355 z" /><path
       inkscape:connector-curvature="0"
       id="path184"
       style="fill:#ffffff;fill-opacity:1;fill-rule:nonzero;stroke:none;stroke-width:0.1"
       d="m 286.265,140.235 -32.783,-14.355 -32.783,14.345 32.783,14.354 32.783,-14.344" /><path
       inkscape:connector-curvature="0"
       id="path186"
       style="fill:none;stroke:#ffffff;stroke-width:0.98999298;stroke-linecap:butt;stroke-linejoin:round;stroke-miterlimit:10;stroke-dasharray:none;stroke-opacity:1"
       d="m 286.265,140.235 -32.783,-14.355 -32.783,14.345 32.783,14.354 z" /><path
       inkscape:connector-curvature="0"
       id="path190"
       style="fill:none;stroke:#ffffff;stroke-width:0.98998004;stroke-linecap:butt;stroke-linejoin:round;stroke-miterlimit:10;stroke-dasharray:none;stroke-opacity:1"
       d="M 253.482,154.579 220.7,140.225 v 40.206 l 32.782,14.355 z" /><path
       inkscape:connector-curvature="0"
       id="path192"
       style="fill:#ffffff;fill-opacity:1;fill-rule:nonzero;stroke:none;stroke-width:0.1"
       d="M 187.917,154.579 220.7,140.225 v 40.206 l -32.783,14.355 v -40.207" /><path
       inkscape:connector-curvature="0"
       id="path194"
       style="fill:none;stroke:#ffffff;stroke-width:0.98998004;stroke-linecap:butt;stroke-linejoin:round;stroke-miterlimit:10;stroke-dasharray:none;stroke-opacity:1"
       d="M 187.917,154.579 220.7,140.225 v 40.206 l -32.783,14.355 z" /><path
       inkscape:connector-curvature="0"
       id="path198"
       style="fill:none;stroke:#ffffff;stroke-width:0.98998004;stroke-linecap:butt;stroke-linejoin:round;stroke-miterlimit:10;stroke-dasharray:none;stroke-opacity:1"
       d="M 253.482,194.796 220.7,180.442 187.917,194.786 220.7,209.141 Z" /></g></svg>